<svg xmlns="http://www.w3.org/2000/svg" xmlns:xlink="http://www.w3.org/1999/xlink" width="1080" zoomAndPan="magnify" viewBox="0 0 810 1012.49997" height="1350" preserveAspectRatio="xMidYMid meet" version="1.2"><defs><clipPath id="3036007935"><path d="M 0.199219 0 L 809.800781 0 L 809.800781 1012 L 0.199219 1012 Z M 0.199219 0 "/></clipPath><clipPath id="2ec686dfab"><path d="M 0.199219 633 L 809.800781 633 L 809.800781 1011.695312 L 0.199219 1011.695312 Z M 0.199219 633 "/></clipPath><clipPath id="a016b23500"><path d="M 0.199219 723 L 809.800781 723 L 809.800781 1011.695312 L 0.199219 1011.695312 Z M 0.199219 723 "/></clipPath><clipPath id="645230c01e"><path d="M 0.199219 782 L 809.800781 782 L 809.800781 1011.695312 L 0.199219 1011.695312 Z M 0.199219 782 "/></clipPath><clipPath id="cba6c38066"><path d="M 0.199219 813 L 809.800781 813 L 809.800781 1011.695312 L 0.199219 1011.695312 Z M 0.199219 813 "/></clipPath></defs><g id="26e0fe2075"><g clip-rule="nonzero" clip-path="url(#3036007935)"><path style=" stroke:none;fill-rule:nonzero;fill:#ffffff;fill-opacity:1;" d="M 0.199219 0 L 809.800781 0 L 809.800781 1012 L 0.199219 1012 Z M 0.199219 0 "/><path style=" stroke:none;fill-rule:nonzero;fill:#ffffff;fill-opacity:1;" d="M 0.199219 0 L 809.800781 0 L 809.800781 1012 L 0.199219 1012 Z M 0.199219 0 "/></g><g clip-rule="nonzero" clip-path="url(#2ec686dfab)"><path style=" stroke:none;fill-rule:evenodd;fill:#cde6c9;fill-opacity:1;" d="M -19.875 748.617188 L -19.875 1011.558594 L 845.199219 1011.558594 L 845.199219 668.261719 C 820.542969 673.226562 786.480469 678.28125 774.636719 692.023438 C 762.285156 706.347656 737.714844 703.1875 719.527344 703.1875 C 696.917969 703.1875 691.191406 696.242188 674.132812 689.292969 C 626.339844 669.820312 614.476562 718.832031 560.855469 698.40625 C 543.269531 691.699219 529.035156 682.398438 512.078125 673.835938 C 505.117188 670.316406 483.929688 663.523438 483.6875 662.121094 C 472.113281 658.324219 431.9375 642.59375 421.175781 637.136719 C 394.183594 623.421875 343.214844 653.375 322.183594 671.234375 C 313.460938 678.644531 302.890625 684.886719 298.949219 688.304688 C 289.382812 696.632812 249.246094 699.800781 241.601562 695.433594 C 217.046875 681.410156 162.511719 678.675781 142.679688 703.660156 C 130.847656 718.574219 99.253906 732.3125 82.234375 719.304688 C 64.953125 706.089844 18.199219 727.757812 -19.875 748.617188 Z M -19.875 748.617188 "/></g><g clip-rule="nonzero" clip-path="url(#a016b23500)"><path style=" stroke:none;fill-rule:evenodd;fill:#b0d0ab;fill-opacity:1;" d="M -19.875 1011.558594 L 845.199219 1011.558594 L 845.199219 767.4375 C 839.125 763.878906 833.097656 760.578125 824.339844 758.238281 C 802.535156 752.421875 795.714844 779.710938 767.589844 779.710938 C 749.644531 779.710938 752.359375 769.125 732.402344 774.917969 C 719.824219 778.582031 680.28125 740.421875 664.917969 730.675781 C 634.957031 711.667969 625.4375 731.929688 605.976562 753.683594 C 592.644531 768.597656 595.917969 775.71875 567.433594 767.507812 C 538.476562 759.15625 552.375 751.277344 509.589844 764.300781 C 483.859375 772.136719 484.207031 775.164062 454.144531 773.101562 C 421.632812 770.875 417.675781 749.996094 386.164062 770.371094 C 374.054688 778.199219 302.722656 782.613281 294.695312 772.269531 C 294.21875 771.65625 229.746094 725.984375 229.421875 725.960938 C 179.796875 722.753906 198.464844 724.613281 161.609375 748.664062 C 143.191406 760.671875 115.355469 763.25 94.984375 774.558594 C 93.441406 775.414062 64.4375 779.3125 59.195312 768.542969 C 53.128906 756.089844 3.402344 747.589844 -9.53125 746.835938 C -12.929688 746.640625 -16.390625 746.03125 -19.875 745.152344 Z M -19.875 1011.558594 "/></g><g clip-rule="nonzero" clip-path="url(#645230c01e)"><path style=" stroke:none;fill-rule:evenodd;fill:#608e72;fill-opacity:1;" d="M -19.875 1011.558594 L 845.199219 1011.558594 L 845.199219 815.824219 C 829.300781 802.953125 792.640625 812.160156 777.367188 817.738281 C 761.289062 823.609375 720.703125 843.898438 704.289062 837.332031 C 687.070312 830.449219 688.679688 831.4375 669.492188 831.710938 C 653.925781 831.9375 636.023438 852.703125 610.160156 832.863281 C 598.742188 824.097656 580.9375 820.191406 575.757812 813.289062 C 570.179688 805.847656 555.207031 789.097656 546.355469 788.746094 C 521.855469 787.773438 510.53125 787.292969 490.304688 799.441406 C 463.433594 815.574219 422.046875 835.828125 392.535156 816.828125 C 372.296875 803.800781 359.554688 826.175781 339.660156 826.175781 C 288.394531 826.175781 318.496094 827.085938 290.539062 815.996094 C 269.671875 807.722656 256.953125 782.449219 234.832031 782.449219 C 213.628906 782.449219 185.488281 824.777344 156.828125 825.335938 C 106.78125 826.308594 125.277344 785.523438 84.1875 813.414062 C 57.804688 831.328125 48.230469 824.027344 41.734375 827.601562 C 21.128906 838.933594 24.390625 833.382812 1.628906 833.382812 C -6.722656 844.777344 -9.765625 844.816406 -19.875 844.523438 Z M -19.875 1011.558594 "/></g><g clip-rule="nonzero" clip-path="url(#cba6c38066)"><path style=" stroke:none;fill-rule:evenodd;fill:#10453b;fill-opacity:1;" d="M -19.875 889.152344 L -19.875 1011.558594 L 845.199219 1011.558594 L 845.199219 840.085938 C 818.332031 853.097656 789.46875 867.839844 764.152344 860.019531 C 737.804688 851.878906 750.121094 855.660156 725.734375 859.730469 C 688.113281 866.019531 696.140625 891.339844 663.097656 878.785156 C 643.957031 871.515625 648.226562 872.914062 632.335938 864.050781 C 614.25 853.976562 615.378906 867.390625 600.125 875.140625 C 579.878906 885.421875 567.621094 905.105469 543.476562 896.328125 C 537.078125 894 502.410156 871.59375 498.964844 867.179688 C 467.648438 827.0625 460.867188 885.9375 414.945312 869.675781 C 369.394531 853.542969 334.851562 883.46875 313.523438 864.734375 C 302.261719 854.835938 280.25 859.417969 266.070312 859.417969 C 258.660156 859.417969 234.414062 845.914062 230.648438 841.953125 C 219.316406 830.039062 203.503906 825.835938 194.109375 818.976562 C 168.402344 800.179688 142.375 831.773438 122.570312 846.226562 C 114.605469 852.03125 96.140625 856.585938 87.765625 856.765625 C 52.632812 857.527344 14.9375 878.214844 -19.875 889.152344 Z M -19.875 889.152344 "/></g></g></svg>