<?xml version='1.0' encoding='utf-8'?>
<svg xmlns="http://www.w3.org/2000/svg" width="180.55mm" height="223.57mm" version="1.1" viewBox="0 0 180.55 223.57"> <g transform="translate(-19.219 94.351)" fill-rule="evenodd"> <path d="m95.778 51.547c39.189 0 52.766 7.1513 60.03 14.978 13.492 14.535 46.073-0.59066 43.856 28.626-0.61233 8.0373-8.826 17.15-25.021 20.821-15.794 3.5862-40.625 14.661-61.149 13.1-59.586-4.4932-48.1-12.235-65.921-14.661-22.593-3.0799-31.778-20.969-27.217-32.086 2.8716-6.9825 13.26-10.78 26.119-13.627 11.93-2.658 22.53-17.15 49.303-17.15z" fill="#e7dc98"/> <path d="m99.579 115.55c2.935 0.61177 4.3074 0.886 6.2289 2.0673 1.9215 1.1813-2.7872 2.0673-6.2289 2.0673-3.4628 0-6.25-0.23203-6.25-1.3923 0-1.1391 3.315-3.3541 6.25-2.7424z" fill="#cabc6e"/> <path d="m178.65 94.265c3.7373 0 6.7568 0.44299 6.7568 0.99147 0 0.56955-4.2652 1.5188-8.0025 1.5188s-5.511-0.94928-5.511-1.5188c0-0.54848 3.0405-0.99147 6.7568-0.99147z" fill="#cabc6e"/> <path d="m90.457 62.812c3.864 0 8.0448 1.4345 8.0448 2.447 0 1.0126-1.5203 2.9111-5.3632 2.9111-3.864 0-8.6149-1.8986-8.6149-2.9111 0-1.0126 2.0904-2.447 5.9333-2.447z" fill="#cabc6e"/> <path d="m109.46 93.105c8.636 0.27425 17.631 0.16865 19.869 0.84382 2.8716 0.86489 7.7914 1.2235 7.7492 2.9744-0.0633 2.0251-4.6664 2.8057-6.4189 3.5862-4.5397 2.0251-13.408 2.9955-21.917 2.9955-11.888 0-18.011-1.8353-20.524-2.4048-2.8927-0.65394-6.7145-2.2361-6.6512-3.8393 0.04222-1.4345 3.674-1.6665 6.7145-2.4892 3.6529-1.0126 11.043-2.004 21.178-1.6665z" fill="#cabc6e"/> <path d="m159.73 75.743c20.228 0.4008 36.613 2.4681 36.529 6.7926-0.0844 4.3245-17.631 10.358-39.21 9.9147-20.249-0.40082-34.206-5.316-34.122-9.6405 0.0845-4.3034 16.554-7.4888 36.803-7.0669z" fill="#cabc6e"/> <path d="m182.71 60.217c-9.2905-4.6409-10.557-12.32-21.094-10.168-6.989 1.4345-23.311 1.7931-26.584 9.8514-2.027 4.9785-4.5186 5.759-5.3632 10.948-0.65456 4.0503-2.3226 9.8093 1.9214 12.151 8.6782 4.8097 20.27 5.316 30.785 5.9488 6.7779 0.4219 13.556-1.2446 19.996-2.8478 3.9907-0.99147 10.663-1.5822 10.895-4.8941 0.5912-8.1216-4.772-18.1-10.557-20.99z" fill="#a77e43"/> <path d="m182.71 60.217c-9.2905-4.6409-10.557-12.32-21.094-10.168-6.989 1.4345-23.311 1.7931-26.584 9.8514-1.3091 3.2487-2.8294 4.7042-3.9696 6.7715 3.7584-1.2024 7.9603-7.8685 13.133-8.3115 4.603-0.40081 13.091-3.0166 20.397-4.2612 1.5203-0.27424 12.669 3.4596 12.162 4.9152-0.52787 1.5821-5.0887 5.1261-10.114 5.5058-6.1867 0.46409-12.711-1.0548-12.12-0.27424 0.40118 0.54848 5.6166 2.0673 13.387 2.215 5.6166 0.08437 15.203-4.6409 14.802-6.2442z" fill="#cda972"/> <path d="m128.8 77.22c-0.0422 2.3627 0.5701 4.5355 2.7872 5.7801 8.6782 4.7886 20.27 5.316 30.785 5.9488 6.7779 0.4219 13.556-1.2446 19.996-2.8478 3.9907-0.99147 10.663-1.5822 10.895-4.8941 0.21114-3.0799-0.42231-6.4551-1.6258-9.5983-1.2458 5.8855-9.3961 12.868-21.748 13.248-10.832 0.35862-21.368 0.04221-30.089-2.2994-3.4628-0.92819-10.325-1.8986-11.001-5.3371z" fill="#8b622a"/> <path d="m154.71 79.182c6.4612-0.78052 23.628-8.5435 17.356-7.1302-9.734 2.1939-20.693 5.8434-27.386 3.3119-3.3572-1.2657 6.3767 4.2612 10.03 3.8182z" fill="#8b622a"/> <path d="m58.13-30.661c11.951 0 10.642 19.471 11.993 28.858 2.1748 15.273 18.095 15.885 18.898 15.885v27.656c-9.4172-1.329-22.107-7.4255-28.674-12.952-5.6588-4.7253-11.972-11.518-12.31-20.631-0.38007-10.231-0.95017-12.636-0.95017-23.226 0-4.0503 1.4358-15.589 11.043-15.589z" fill="#34a152"/> <path d="m109.08-85.74c11.212 0 19.954 8.0373 22.065 37.507 2.8716 39.743-1.9003 95.793-5.5954 146.13-12.669 3.5862-28.843 2.0673-32.939 0-5.4899-45.08-8.1926-114.74-5.6166-146.13 2.0904-25.399 10.874-37.507 22.086-37.507z" fill="#34a152"/> <path d="m157.03-52.03c-12.479 0-10.367 18.901-10.367 27.36 0 4.1558 0.0633 14.007-5.9122 15.737-2.576 0.73833-8.3404 0.443-11.022 0.443v25.082c8.1503-0.08439 16.195-1.9829 22.635-5.0628 6.5667-3.1221 15.013-15.399 14.548-26.833-0.4223-9.9358 0.46452-12.151 0.46452-22.087 0-3.8182-1.3514-14.64-10.346-14.64z" fill="#34a152"/> <path d="m157.03-52.03c-4.8775 0-7.538 2.89-8.9527 6.8981 0.48564 1.3712 2.3226 2.447 4.1807 2.447 2.6605 0 3.9062-1.9408 4.2441-3.3541 0.16893 1.4978 1.3302 3.0588 3.7162 3.0588 2.217 0 5.0464-1.4345 5.511-2.8478-1.4358-3.3119-4.054-6.202-8.6993-6.202z" fill="#1a8c40"/> <path d="m58.13-30.661c3.2517 0 5.511 1.4345 7.1368 3.7338-0.1478-0.04217-0.31672-0.10548-0.46453-0.16876 0.23226 0.12658 0.4223 0.25314 0.61233 0.37971 0.40118 0.59066 0.73902 1.2446 1.0769 1.9408-0.19003 1.4345-2.3226 2.6791-4.3497 2.6791-2.6605 0-3.6529-1.6243-4.2441-2.9111 0.10558 1.4767-1.7314 2.9111-4.1385 2.9111-1.7314 0-3.8429-0.88599-4.8986-1.9407 1.5203-3.544 4.3074-6.6239 9.2694-6.6239z" fill="#1a8c40"/> <path d="m109.08-85.74c8.1081 0 14.928 4.219 18.898 17.762-1.2036 1.2235-5.0465 0.90709-7.2846-0.48519-2.3438-1.4767-3.2094-3.776-2.5338-5.5058-0.67567 0.92819-2.4916 1.7509-5.6799 0.33752-1.0346-0.46409-1.9637-1.3079-2.6394-2.2361-0.0211 0-0.0633 0.02111-0.0845 0.0422-3.5473 2.0251-5.7432 1.2868-6.6301 0.29533 0.97129 1.9197 0.25338 4.6831-2.3015 6.6872-2.5549 2.004-7.3691 2.8057-8.636 1.2024-0.44342-0.59066-0.80237-1.1602-0.95017-1.8142 4.0541-10.969 10.41-16.285 17.842-16.285z" fill="#1a8c40"/> <path d="m87.881 41.548c-9.2905-1.6243-21.22-7.4466-27.534-12.763-5.6588-4.7464-11.972-11.518-12.31-20.631-0.38007-10.231-0.95017-12.636-0.95017-23.226-0.27449-3.8393 1.3514-9.8725 4.0963-12.678-3.3573 6.7715-1.4569 19.408-0.88682 34.702 0.44341 11.855 11.55 21.369 18.581 25.209 7.1579 3.9237 8.5515 3.7128 13.197 5.5902 1.7736 0.71723 4.1174 1.0758 6.3978 1.329 1.2247 0.14767 2.1748 2.0462 2.2171 2.5525-0.90794 0.61175-2.4704 0.25314-2.8083-0.08439z" fill="#6ec374"/> <path d="m64.507-27.876c5.1098 5.7168 4.5819 18.859 5.6166 26.074 2.1748 15.273 18.307 15.842 19.32 15.99 2.3226 1.9829 2.1115 6.3285 1.2669 4.7675-0.95017-1.7087-3.7373-2.5525-4.3285-2.5736-5.4476-0.16876-13.514-4.7042-17.103-10.843-4.2652-7.32-0.50676-26.116-4.772-33.415z" fill="#6ec374"/> <path d="m117.32 99.518c-1.3302 0.16865-2.6816 0.29532-3.9907 0.37971 1.3091-57.294 3.3362-118.74-0.50675-175.3-0.23227-3.2487 0.46453-4.5566 1.288-2.89 7.0946 14.408 4.7086 165.22 3.2094 177.81z" fill="#6ec374"/> <path d="m106.12 100.02c-1.3302-0.04221-2.6394-0.10554-3.864-0.21086-1.4358-3.8815-6.0177-161.86 1.288-176.74 0.82348-1.6665 2.1115-1.4556 1.8792 1.7931-3.864 56.767-0.61233 117.65 0.69679 175.15z" fill="#6ec374"/> <path d="m86.762 30.199c-12.31-3.0377-20.566-7.9107-24.24-12.763-8.3826-11.012-7.2424-28.647-5.701-44.743 0.10558-0.92819 2.4493-0.75943 1.837 0.06328 0.16892 17.382-0.69679 33.077 8.4037 43.308 4.3074 4.8519 12.563 7.7208 20.967 10.189 2.8294 0.82271 2.3015 4.8097-1.2669 3.9448z" fill="#6ec374"/> <path d="m157.03-52.03c-12.479 0-10.367 18.901-10.367 27.36 0 4.1558 0.0633 14.007-5.9122 15.737-2.576 0.73833-8.3404 0.443-11.022 0.443v4.43c2.2171-0.042173 7.9181-0.75942 12.88-2.0884 5.9333-1.6032 6.5245-15.231 6.609-21.686 0.0845-5.5269 0.0845-10.927 1.0135-15.02 1.0135-4.5566 3.7162-7.2145 7.2213-7.0669 4.0752 0.16876 7.9181 1.5399 7.9181 15.674 0 5.316-0.44341 15.758-0.8446 20.399-0.50675 5.9277-5.4687 17.446-10.494 21.011-8.8682 6.2442-19.468 6.877-24.303 7.1724v2.2572c8.1503-0.08439 16.195-1.9829 22.635-5.0628 6.5667-3.1221 15.013-15.399 14.548-26.833-0.4223-9.9358 0.46452-12.151 0.46452-22.087 0-3.8182-1.3514-14.64-10.346-14.64z" fill="#6ec374"/> <path d="m150.7-3.2579c-3.2306 5.9066-14.696 7.2778-20.967 7.32-1.3514 0.84381-1.5836 4.9996 0 4.7464 7.897-1.2235 18.328-2.8268 22.593-8.7334 5.5532-7.6786 6.1655-18.69 6.4189-29.006 0.16893-7.531 0.21115-12.931-0.82348-17.973-3.0828-15.02 0.1478 30.229-7.2213 43.646z" fill="#6ec374"/> <path d="m89.443 14.188c-1.3725 0.99147-1.9848 1.2235-2.8716-0.25314-0.82348-24.787-0.76013-47.591 0.4223-62.167 2.0904-25.399 10.874-37.507 22.086-37.507 11.212 0 19.954 8.0373 22.065 37.507 2.8716 39.743-1.9003 95.793-5.5954 146.13-0.86571 0.25314-1.7525 0.48518-2.6605 0.67505 4.413-64.193 7.1579-110.98 5.2998-141.11-1.8792-30.272-10.832-42.022-19.172-41.937-8.0659 0.08439-18.708 10.59-19.996 52.611-0.38007 12.741-0.19003 28.521 0.4223 46.051zm-1.6258 27.36c1.3514 0.10548 2.0059 0.12658 2.8716 0.08439 0.97128 18.332 2.3226 37.718 3.8851 56.978-0.80237-0.23206-1.478-0.4641-1.9637-0.71724-2.0059-16.518-3.6529-36.326-4.7931-56.345z" fill="#6ec374"/> <path d="m157.03-52.03c-4.6453 0-7.4958 2.6791-8.9527 6.8981 0.31672 0.8649 1.1613 1.6243 2.1959 2.0462 1.0558-4.4089 3.7373-6.9825 7.179-6.8348 2.7661 0.10548 5.4265 0.80162 6.8412 5.6535 0.71791-0.4641 1.2458-1.0126 1.4358-1.561-1.5625-3.7338-4.4975-6.202-8.6993-6.202zm1.4358 8.7123c-0.12669-1.2446-0.31672-2.4259-0.54899-3.5862-1.0135-4.9152-1.3302-3.3752-1.5836 1.3923 0.0633-0.16876 0.12669-0.35862 0.1689-0.52738 0.12669 1.0759 0.73902 2.1728 1.9637 2.7213z" fill="#48ad60"/> <path d="m49.811-23.298c-0.38007-0.23205-0.69679-0.48519-0.95017-0.73833 0.5701-1.3501 1.3302-2.6369 2.3226-3.7128-0.63345 1.2868-1.0769 2.7635-1.3725 4.4511zm8.8682-0.35862c-0.33784-0.443-0.59122-0.92819-0.78125-1.3501 0.06334 0.84381-0.52787 1.6876-1.478 2.2361 0.12669-1.5189 0.27449-3.0377 0.40118-4.5355 0.10558-0.92819 2.4493-0.75943 1.837 0.06328 0.02111 1.2024 0.02111 2.3838 0.02111 3.5862zm6.2711-3.3541c0.16893 0.10548 0.31672 0.18986 0.46453 0.29533 0.40118 0.61176 0.76014 1.2657 1.0769 1.9408-0.06334 0.37971-0.23226 0.73833-0.50676 1.0548-0.25338-1.2235-0.59122-2.3205-1.0346-3.2908z" fill="#48ad60"/> <path d="m112.94-73.442c-0.0422-0.65395-0.0844-1.3079-0.12669-1.9618-0.23227-3.2487 0.46453-4.5566 1.288-2.89 0.52787 1.0759 0.99239 2.9322 1.4358 5.4215-0.71791 0-1.5836-0.16876-2.5971-0.56957z" fill="#48ad60"/> <path d="m101.88-69.834c0.48564-3.333 1.0346-5.7801 1.6681-7.088 0.82348-1.6665 2.1115-1.4556 1.8792 1.7931l-0.0211 0.56957c-1.0769-0.06328-1.837-0.48519-2.2804-0.97038 0.82348 1.6243 0.44342 3.8393-1.2458 5.6957z" fill="#48ad60"/> <path d="m124.73-76.057c1.3936 2.5525 2.4282 5.2738 3.2517 8.0794-0.69679 0.69614-2.2382 0.886-3.864 0.67504-0.90794-2.8689-1.9214-5.3371-2.9983-7.4255 0.38007-0.27424 3.3573-1.772 3.6106-1.329zm-26.204-1.2235c-1.7948 2.5103-3.3784 5.9488-4.772 10.421-0.67568-0.12656-1.2247-0.37971-1.5625-0.78052-0.44342-0.59066-0.80237-1.1602-0.95017-1.8142 1.3725-3.5862 2.9772-6.9403 5.4265-9.9147 0.65456 0.71724 1.3091 1.4345 1.8581 2.0884z" fill="#48ad60"/> <path d="m125.91-88.714c-2.7238-1.5821-8.6149-2.0673-7.538 2.9322-1.1824-3.5651-6.8201-5.6324-8.7838-2.5103-0.97128 1.5399-0.14779 5.3371 3.4628 6.2864-6.6512-1.8986-4.3497 4.7886-0.5701 6.4762 3.1883 1.4134 5.0042 0.56957 5.6799-0.35862-0.67567 1.7509 0.19003 4.0292 2.5338 5.5058 2.3649 1.4767 6.5245 1.7509 7.4536 0.25314 0.92905-1.4767 1.2247-2.9533-1.2458-5.0628 2.0904 2.0673 5.1943 1.2446 6.1022-0.18986 1.6258-2.5736-2.2382-6.7715-6.6301-6.2653 4.3286-1.7298 1.2036-6.0965-0.46453-7.0669z" fill="#ec5f74"/> <path d="m125.72-87.955c-2.7027-1.5821-8.2981-1.7298-7.2213 3.2697-1.1824-3.5651-5.6588-6.2864-7.6225-3.1432-0.97128 1.5399-0.23226 5.0628 3.3784 5.991-6.6512-1.8986-4.3497 4.2401-0.5701 5.9066 3.1883 1.4134 4.4764-0.35862 5.152-1.2868-0.65457 1.7298-0.0845 4.5566 2.2804 6.0543 2.3438 1.4767 5.2787 1.561 6.2078 0.06328 0.95017-1.4767 0.25338-2.658-1.6047-5.3582 2.0904 2.0673 5.8699 2.1306 6.3133 0.48519 0.95017-3.5018-2.4916-5.6535-6.8834-5.1261 4.3286-1.7298 2.2382-5.8645 0.5701-6.8559z" fill="#cb394e"/> <path d="m122.02-82.534c-2.5127-1.6032-5.5321-1.6665-6.06-0.21095-0.50675 1.4556 1.2247 3.5862 3.2728 4.7253 2.0481 1.1602 5.7221 1.0759 5.9755-0.21095 0.25337-1.2868-0.65457-2.7213-3.1884-4.3034z" fill="#ffd253"/> <path d="m92.568-91.436c2.9561-2.1517 9.7551-3.4174 9.1216 2.5103 0.92905-4.2823 7.2213-7.3833 9.8818-3.9659 1.3091 1.6876 0.82348 6.1809-3.2517 7.6997 7.4958-2.9955 5.6166 5.0628 1.4358 7.4677-3.5473 2.0251-5.7432 1.2868-6.6301 0.27424 0.97128 1.9408 0.25338 4.7042-2.3015 6.7083-2.576 1.9829-7.3691 2.8057-8.636 1.1813-1.2669-1.6032-1.7525-3.2908 0.84459-6.0543-2.1748 2.6791-5.891 2.0884-7.1157 0.52738-2.1748-2.7846 1.7948-8.1427 6.9468-8.0794-5.2365-1.4767-2.1115-6.9192-0.29561-8.2693z" fill="#fe7b8a"/> <path d="m95.588-91.457c3.5473-0.97038 4.9409 0.97038 5.7432 4.662 1.3514-4.0925 6.1867-8.4803 8.8682-5.0628 1.3091 1.6665 0.78126 5.548-3.2939 7.0669 6.5245-1.2235 5.8277 4.0714 1.647 6.4551-3.5473 2.0251-5.7432 0.14767-6.6512-0.8649 0.99239 1.9408 0.61233 5.3793-1.9426 7.3833-5.1098 3.987-9.6495 1.4767-5.9966-4.7042-3.4206 2.3205-5.6588 2.0884-6.8834 0.52738-2.1959-2.8057 2.2593-6.9403 7.4113-6.877-6.25-3.1854-0.88683-8.0373 1.098-8.5857z" fill="#ec5a6c"/> <path d="m97.404-84.327c2.7449-2.1306 6.25-2.5947 7.0101-0.94928 0.78124 1.6454-0.97129 3.7338-3.7162 5.8856-2.7449 2.1517-6.0177 1.9408-6.4611 0.46409-0.44342-1.4767 0.4223-3.2487 3.1672-5.4004z" fill="#ffd253"/> <path d="m104.41-85.276c0.78124 1.6454-0.97129 3.7338-3.7162 5.8856-2.7449 2.1517-6.0177 1.9408-6.4611 0.46409 1.9426 2.3838 11.022-4.8097 10.177-6.3496z" fill="#fa9f36"/> <path d="m115.96-82.745c-0.50675 1.4556 1.2247 3.5862 3.2728 4.7253 2.0481 1.1602 5.7221 1.0759 5.9755-0.21095-4.6453 1.9197-8.5938-2.9111-9.2483-4.5144z" fill="#fa9f36"/> <path d="m28.041 104.5c-2.1959-2.004-5.5321-3.776-5.1731-6.2653 0.7179-5.1472 20.059-5.6957 30.912-5.6957 10.853 0 27.28 3.2487 25.359 7.8052-2.3649 5.6324-14.738 8.0584-26.351 7.4044-9.6284-0.52738-21.917-0.65394-24.747-3.2486z" fill="#cabc6e"/> <path d="m74.769 71.103c4.5186 0 8.1926 1.2657 8.1926 2.8268 0 1.0759-2.1326 1.3079-4.6242 1.7931-1.1824 0.23206-2.1115 1.0337-3.5684 1.0337-4.4975 0-8.1714-1.2657-8.1714-2.8268s3.674-2.8268 8.1714-2.8268z" fill="#cabc6e"/> <path d="m79.329 65.428c-2.5338-1.9829-2.5338-4.7042-5.7644-4.3667-2.1326 0.21095-7.0101-0.29533-8.3615 2.3838-0.8446 1.6454-1.6258 1.8142-2.1326 3.5862-0.38007 1.3923-1.1613 3.333-0.02111 4.3245 2.3437 2.004 5.7432 2.6369 8.826 3.2697 2.0059 0.4219 4.0752 0.10554 6.0811-0.18997 1.2247-0.18997 3.2306-0.12665 3.4628-1.2868 0.5701-2.8057-0.52787-6.4973-2.0904-7.7208z" fill="#8b622a"/> <path d="m79.329 65.428c-2.5338-1.9829-2.5338-4.7042-5.7644-4.3667-2.1326 0.21095-7.0101-0.29533-8.3615 2.3838-0.8446 1.6454-1.6258 1.8142-2.1326 3.5862 3.8851-1.3079 3.484-3.333 10.346-3.333 1.2036 0 4.603 2.6158 5.9122 1.7298z" fill="#a77e43"/> <path d="m75.845 81.144c-0.27449-3.333-7.1368-13.438-13.281-16.201-3.2517-1.4556-17.969-2.3205-22.804 1.4556-7.1791 5.5902-7.6225 7.1724-12.584 11.476-5.9544 5.1472-5.9755 10.126-5.4265 12.235 2.9139 11.391 12.796 14.956 15.625 14.788 10.832-0.59068 19.468 0.75942 30.215-0.67504 4.2441-0.54849 8.9105-6.2231 9.734-7.974 1.8792-3.9448-0.95017-8.206-1.478-15.104z" fill="#a77e43"/> <path d="m73.354 75.617c-2.5971-4.0925-6.8412-8.9022-10.79-10.674-3.2517-1.4556-17.969-2.3205-22.804 1.4556-7.1791 5.5902-7.6225 7.1724-12.584 11.476-5.9544 5.1472-5.9755 10.126-5.4265 12.235 0.73902-0.14775 2.7449-3.1854 5.2787-3.5651 5.2365-0.75942 16.681 4.4722 20.418 0.04221 1.2458-1.4767-15.456-0.73833-15.562-5.0628-0.06334-2.2994 9.6917-9.2186 10.769-10.02 4.8775-3.6916 10.832-3.1221 16.66-2.3205 5.9333 0.80161 7.4324 3.6916 14.041 6.434z" fill="#cda972"/> <path d="m27.26 99.855c3.8429 3.7971 8.3615 5.1472 10.114 5.0418 10.832-0.59068 19.468 0.75942 30.215-0.67504 4.2441-0.54849 8.9105-6.2231 9.734-7.974-14.358 9.7249-32.77 4.5988-50.063 3.6073z" fill="#8b622a"/> <path d="m75.845 81.144c-1.2669 3.1643-2.7449 3.6495-6.1655 4.662-5.4687 1.6243-13.323 1.5399-9.8818 2.658 2.0481 0.67505 6.5034 0.99147 9.0794 0.40079 3.9274-0.90708 6.8201 0.44301 8.3615-0.14775-0.48564-1.9618-1.2036-4.9995-1.3936-7.5732z" fill="#8b622a"/> <path d="m148.5 113.97c6.5456 0 11.867-0.50629 11.867 1.4345 0 1.9619-4.2441 3.776-10.79 3.776-4.9198 0-6.9046-0.92817-8.3826-2.6369-1.2669-1.4766 0.73903-2.5736 7.3058-2.5736z" fill="#cabc6e"/> <path d="m140.44 109.98c0.10558-1.5188 4.4975-4.4511 7.0946-4.7253 7.179-0.7805 6.5245-1.7087 10.304 2.2361 3.4417 3.5862 2.8294 5.8434 1.3302 7.531-1.0557 1.2024-2.3438 2.3837-3.8007 2.2783-4.054-0.27423-7.2846 0.33753-11.318-0.29532-1.6047-0.25314-3.3784-2.8268-3.6529-3.6284-0.35894-0.99148-0.10558-1.6876 0.0422-3.3963z" fill="#a77e43"/> <path d="m159.16 115.02c-1.0557 1.2024-2.3438 2.3837-3.8007 2.2783-4.054-0.27423-7.2846 0.33753-11.318-0.29532-1.5625-0.25314-3.315-2.7213-3.6318-3.5651l-0.0211-0.0633c5.3843 4.4089 12.289 2.0884 18.771 1.6454z" fill="#8b622a"/> <path d="m142.06 107.87 0.0845-0.0422 0.0634-0.0633 0.0633-0.0633h0.0211l0.0633-0.0633 0.0844-0.0422 0.0845-0.0633v-0.0211l0.1266-0.0844 0.0211-0.0211 0.0845-0.0422 0.25337-0.16865 0.0422-0.0422 0.0422-0.0211 0.0633-0.0633h0.0211l0.0845-0.0422 0.0633-0.0422 0.0211-0.0211 0.0845-0.0422 0.0211-0.0422 0.0633-0.0211 0.0845-0.0633 0.0845-0.0422 0.0633-0.0422 0.0211-0.0211 0.0845-0.0422 0.0211-0.0211 0.0844-0.0211 0.0634-0.0422 0.0211-0.0211 0.0845-0.0422 0.0422-0.0211 0.0422-0.0422 0.10558-0.0422 0.0845-0.0422 0.0633-0.0422h0.0211l0.10558-0.0633h0.0211l0.0633-0.0422 0.0845-0.0422 0.10558-0.0422 0.0422-0.0211 0.12668-0.0633 0.0211-0.0211 0.12669-0.0422v-0.0211h0.0422l0.0845-0.0422 0.0211-0.0211 0.14779-0.0633h0.0211c0.0845-0.0422 0.16893-0.0633 0.25338-0.10554h0.0211l0.1478-0.0633h0.0211c0.0845-0.0422 0.16892-0.0633 0.25338-0.0844l0.0211-0.0211 0.0845-0.0211 0.0422-0.0211 0.12669-0.0211v-0.0211c0.14782-0.0422 0.2745-0.0633 0.4223-0.10554l0.10558-0.0211h0.0211l0.0422-0.0211h0.0845l0.0211-0.0211h0.0845l0.0211-0.0211h0.1478l0.10558-0.0211c6.3345-0.69615 6.5667-1.4978 9.1216 1.0336-0.9924 0.12665-2.3438 0.25315-2.9983 0.37971-1.6892 0.31642-0.0422 1.7087-6.0389 1.4345-2.4916-0.12665-3.6529 1.118-5.5532-0.23204z" fill="#cda972"/> <path d="m57.476-39.774c3.864 0 6.44 2.5103 4.4341 4.7675 1.9215-1.8142 3.7796-1.8564 5.3843 0.40081 1.3302 1.8986 0.86571 7.4255-3.3995 5.6324 3.8007 2.1095 0.44341 4.9996-2.6605 4.9996-2.6605 0-3.6529-1.6243-4.2441-2.9111 0.10558 1.4978-1.7314 2.9111-4.1385 2.9111-2.4071 0-5.5743-1.7087-5.5743-3.2276 0-1.5189 0.46453-2.215 1.7103-2.7424-1.9848-0.23205-2.8505-1.8564-2.8505-3.333 0-2.6158 4.3708-3.6706 7.4535-2.5314-1.4358-2.9111 2.2171-3.9659 3.8851-3.9659z" fill="#ec5f74"/> <path d="m57.433-38.951c3.4628-0.02111 4.8775 2.7002 3.9062 4.7464 1.7314-1.6454 3.4628-2.1517 4.8986-0.12658 1.2035 1.7087 0.54898 6.1387-3.2517 4.8941 2.766 2.215 0.59122 4.662-2.1748 4.662-2.386 0-3.3995-1.772-3.9274-2.9322 0.10558 1.329-1.4569 2.9322-3.6106 2.9322-2.1537 0-4.9831-1.5399-4.9831-2.9111 0-1.3501 0.71791-1.772 1.837-2.2361-1.7948-0.23205-2.8716-1.8986-2.8716-3.2065 0-2.3627 4.1596-2.9533 6.9257-1.9408-1.288-2.5947 1.7525-3.8815 3.2517-3.8815z" fill="#cb394e"/> <path d="m57.476-33.719c2.4916 0.27424 4.1596 1.4556 3.8218 2.8689-0.31672 1.4134-2.386 2.1095-4.4764 1.8775-2.2382-0.27424-4.4764-1.7509-4.0329-2.89 0.44341-1.1602 2.1959-2.1306 4.6875-1.8564z" fill="#ffd253"/> <path d="m61.297-30.85c-0.31672 1.4134-2.386 2.1095-4.4764 1.8775-2.2382-0.27424-4.4764-1.7509-4.0329-2.89 0.76014 2.2361 6.9257 2.9322 8.5093 1.0126z" fill="#fa9f36"/> <path d="m151.73-55.743c-1.9215-1.8353-4.4552-0.35862-5.4476 1.3079-1.1824 1.9829-0.35895 6.0121 2.935 4.7886-3.0194 2.3416-0.0211 5.2949 3.0617 5.2949 2.6394 0 3.8851-1.9619 4.223-3.3541 0.19004 1.4978 1.3302 3.0377 3.7373 3.0377s5.5532-1.7087 5.5532-3.2065c0-1.5189-0.46452-2.215-1.7103-2.7424 2.0059-0.25314 2.3649-2.4048 2.027-3.8182-0.5701-2.3838-5.2787-3.4596-6.609-2.0462 0.33783-2.1517-1.3936-4.1768-5.152-3.544-2.935 0.48519-3.1461 3.2487-2.6182 4.2823z" fill="#fe7b8a"/> <path d="m152.28-55.068c-1.6681-1.5821-3.8218-0.50628-4.6664 0.92819-1.0346 1.7087-0.4223 5.0839 2.4071 4.0292-2.5971 2.0251 0.0845 4.6831 2.766 4.6831 2.2804 0 3.4628-1.7931 3.7584-2.9955 0.14779 1.2868 1.0557 2.7424 3.125 2.7424 2.0692 0 4.7931-1.4767 4.7931-2.7846 0-1.3079-0.40118-1.9197-1.478-2.3838 1.7314-0.21095 2.0481-2.0673 1.7525-3.2908-0.48564-2.0462-4.4764-2.8689-5.6166-1.6454 0.29561-1.8564-1.3091-3.7338-4.5397-3.1854-2.5549 0.4219-2.7872 3.0166-2.3015 3.9026z" fill="#ec5a6c"/> <path d="m156.36-54.73c-2.5127 0.04219-4.2652 1.0337-4.0752 2.4892 0.19003 1.4345 2.1959 2.3205 4.2863 2.2783 2.2593-0.04219 4.603-1.3079 4.2652-2.5103-0.31673-1.1813-1.9637-2.3205-4.4764-2.2572z" fill="#ffd253"/> <path d="m152.28-52.241c0.19003 1.4345 2.1959 2.3205 4.2863 2.2783 2.2593-0.04219 4.603-1.3079 4.2652-2.5103-2.4704 2.8268-7.2213 1.8564-8.5515 0.23205z" fill="#fa9f36"/> <path d="m109.4-59.034c1.0346 0 1.8792 14.281 1.8792 31.917 0 17.614-0.84459 31.896-1.8792 31.896s-1.8792-14.281-1.8792-31.896c0-17.636 0.84459-31.917 1.8792-31.917z" fill="#1a8c40"/> <path d="m97.467-60.152c1.0346 0-2.0481 11.771-2.0481 29.407 0 17.614 0 22.023-1.0346 22.023-1.0557 0-1.3725-4.4722-1.3725-22.087 0-17.614 3.4206-29.343 4.4552-29.343z" fill="#1a8c40"/> <path d="m121.28-59.034c-1.0558 0 2.0481 11.771 2.0481 29.407 0 17.614 0 22.023 1.0346 22.023s1.3514-4.4722 1.3514-22.087c0-17.614-3.3995-29.343-4.4341-29.343z" fill="#1a8c40"/> <path d="m109.4 15.496c1.0346 0 1.5203 15.779 1.5203 35.271 0 19.492-0.48564 40.84-1.5203 40.84s-1.5203-21.348-1.5203-40.84c0-19.492 0.48564-35.271 1.5203-35.271z" fill="#1a8c40"/> <path d="m124.2 22.816c1.0346 0.06328 0.46453 13.058-0.27449 27.825-0.73902 14.767-1.4147 33.942-2.4493 33.9-1.0346-0.06332-0.4223-19.323 0.31672-34.09 0.73902-14.767 1.3725-27.677 2.4071-27.635z" fill="#1a8c40"/> <path d="m95.229 35.642c-1.0346 0.04217-0.82348 14.176-0.08445 28.943 0.73902 14.767 1.8792 22.994 2.9139 22.93 1.0346-0.04221 0.67568-8.3537-0.06334-23.12-0.73903-14.767-1.7314-28.816-2.7661-28.753z" fill="#1a8c40"/> <path d="m63.683-12.603c0.40118 5.991 0.69679 10.337 2.4282 17.783 1.7103 7.4466 14.421 13.353 15.857 14.935 1.1824 1.3079-12.943-1.5821-17.082-11.834-5.0676-12.615-1.5203-25.42-1.2035-20.884z" fill="#1a8c40"/> <path d="m52.978-9.4177c0.38007 5.991 1.8581 15.716 4.0329 23.036 2.7449 9.1975 21.094 17.382 22.508 18.943 1.2035 1.3079-20.144-6.7505-24.261-17.024-5.0676-12.594-2.5971-29.47-2.2804-24.956z" fill="#1a8c40"/> <path d="m151.75-35.723c-0.40119 5.991-0.48565 14.978-1.9848 22.466-1.7948 8.9022-8.2559 11.244-13.936 12.805-1.6892 0.48519 11.402 2.3838 15.139-8.7545 4.3074-12.889 1.0769-31.052 0.78126-26.517z" fill="#1a8c40"/> <path d="m161.45-32.897c-0.50676 5.8645-1.3302 20.209-4.1174 28.331-3.9696 11.518-23.29 14.703-21.706 15.315 1.647 0.63285 18.433-0.84381 23.459-13.395 5.0464-12.615 2.9138-36.41 2.3649-30.25z" fill="#1a8c40"/> </g> </svg>