<?xml version="1.0" encoding="UTF-8"?>
<svg viewBox="0 0 608 1039" xmlns="http://www.w3.org/2000/svg" xmlns:xlink="http://www.w3.org/1999/xlink">
 <defs>
  <filter id="c">
   <feGaussianBlur stdDeviation="12.29143"/>
  </filter>
  <filter id="aj">
   <feGaussianBlur stdDeviation="9.47497"/>
  </filter>
  <filter id="ar">
   <feGaussianBlur stdDeviation="3.81282"/>
  </filter>
  <filter id="aq">
   <feGaussianBlur stdDeviation="2.38301"/>
  </filter>
  <filter id="ap">
   <feGaussianBlur stdDeviation="2.32584"/>
  </filter>
  <filter id="aw">
   <feGaussianBlur stdDeviation="4.17776"/>
  </filter>
  <filter id="ai">
   <feGaussianBlur stdDeviation="3.16359"/>
  </filter>
  <filter id="ah">
   <feGaussianBlur stdDeviation="12.087"/>
  </filter>
  <filter id="ag">
   <feGaussianBlur stdDeviation="4.64698"/>
  </filter>
  <filter id="ac">
   <feGaussianBlur stdDeviation="3.79611"/>
  </filter>
  <filter id="ab">
   <feGaussianBlur stdDeviation="4.78516"/>
  </filter>
  <filter id="ao" x="-.18464" y="-.06055" width="1.3693" height="1.1211">
   <feGaussianBlur stdDeviation="13.40857"/>
  </filter>
  <filter id="an" x="-.18835" y="-.15162" width="1.3767" height="1.3032">
   <feGaussianBlur stdDeviation="10.36462"/>
  </filter>
  <filter id="am" x="-.18649" y="-.06464" width="1.373" height="1.1293">
   <feGaussianBlur stdDeviation="27.08571"/>
  </filter>
  <filter id="al" x="-.12906" y="-.04543" width="1.2581" height="1.0908">
   <feGaussianBlur stdDeviation="15.08824"/>
  </filter>
  <filter id="ak" x="-.14586" y="-.05212" width="1.2917" height="1.1042">
   <feGaussianBlur stdDeviation="17.06754"/>
  </filter>
  <filter id="h" x="-.48731" y="-.12709" width="1.9746" height="1.2542">
   <feGaussianBlur stdDeviation="10.27026"/>
  </filter>
  <filter id="g" x="-.24722" y="-.34489" width="1.4944" height="1.6898">
   <feGaussianBlur stdDeviation="17.62527"/>
  </filter>
  <filter id="bn" x="-.11537" y="-.16095" width="1.2307" height="1.3219">
   <feGaussianBlur stdDeviation="8.22513"/>
  </filter>
  <filter id="bl" x="-1.4759" y="-.07304" width="3.9518" height="1.1461">
   <feGaussianBlur stdDeviation="17.3046"/>
  </filter>
  <filter id="bk" x="-3.261" y="-.05367" width="7.5219" height="1.1073">
   <feGaussianBlur stdDeviation="12.17136"/>
  </filter>
  <filter id="bj" x="-1.0062" y="-.05306" width="3.0123" height="1.1061">
   <feGaussianBlur stdDeviation="12.9078"/>
  </filter>
  <filter id="bh" x="-.87406" y="-.06442" width="2.7481" height="1.1288">
   <feGaussianBlur stdDeviation="15.78101"/>
  </filter>
  <filter id="bg" x="-2.7717" y="-.09174" width="6.5434" height="1.1835">
   <feGaussianBlur stdDeviation="20.54197"/>
  </filter>
  <filter id="bd" x="-.6018" y="-.04377" width="2.2036" height="1.0875">
   <feGaussianBlur stdDeviation="4.05273"/>
  </filter>
  <filter id="bb" x="-.45024" y="-.268" width="1.9005" height="1.536">
   <feGaussianBlur stdDeviation="13.4"/>
  </filter>
  <filter id="bm" x="-.2945" y="-.03521" width="1.589" height="1.0704">
   <feGaussianBlur stdDeviation="7.71313"/>
  </filter>
  <filter id="bi" x="-.32066" y="-.03787" width="1.6413" height="1.0757">
   <feGaussianBlur stdDeviation="6.34408"/>
  </filter>
  <filter id="bf" x="-.13636" y="-.16667" width="1.2727" height="1.3333">
   <feGaussianBlur stdDeviation="3.78808"/>
  </filter>
  <filter id="be" x="-.21517" y="-.0748" width="1.4303" height="1.1496">
   <feGaussianBlur stdDeviation="22.79736"/>
  </filter>
  <filter id="bc" x="-.28844" y="-.09022" width="1.5769" height="1.1804">
   <feGaussianBlur stdDeviation="24.05803"/>
  </filter>
  <filter id="ba" x="-.4837" y="-.15773" width="1.9674" height="1.3155">
   <feGaussianBlur stdDeviation="6.10764"/>
  </filter>
  <filter id="az" x="-.18131" y="-.0645" width="1.3626" height="1.129">
   <feGaussianBlur stdDeviation="5.64706"/>
  </filter>
  <filter id="ay" x="-.55748" y="-.12251" width="2.115" height="1.245">
   <feGaussianBlur stdDeviation="20.92944"/>
  </filter>
  <filter id="av" x="-.59087" y="-.1367" width="2.1817" height="1.2734">
   <feGaussianBlur stdDeviation="14.0764"/>
  </filter>
  <filter id="au" x="-.16916" y="-.03904" width="1.3383" height="1.0781">
   <feGaussianBlur stdDeviation="6.04153"/>
  </filter>
  <filter id="ax" x="-.19355" y="-.11613" width="1.3871" height="1.2323">
   <feGaussianBlur stdDeviation="1.22196"/>
  </filter>
  <filter id="f" x="-.18354" y="-.42548" width="1.3671" height="1.851">
   <feGaussianBlur stdDeviation="3.9398"/>
  </filter>
  <filter id="e" x="-.04664" y="-.12374" width="1.0933" height="1.2475">
   <feGaussianBlur stdDeviation="7.43948"/>
  </filter>
  <filter id="at" x="-.73387" y="-.20015" width="2.4677" height="1.4003">
   <feGaussianBlur stdDeviation="15.7258"/>
  </filter>
  <filter id="as" x="-.17586" y="-.47336" width="1.3517" height="1.9467">
   <feGaussianBlur stdDeviation="2.97648"/>
  </filter>
  <filter id="b" x="-.17343" y="-.50828" width="1.3469" height="2.0166">
   <feGaussianBlur stdDeviation="6.4223"/>
  </filter>
  <filter id="af" x="-.21013" y="-.84052" width="1.4203" height="2.681">
   <feGaussianBlur stdDeviation="3.53771"/>
  </filter>
  <filter id="ae" x="-.26509" y="-1.0604" width="1.5302" height="3.1207">
   <feGaussianBlur stdDeviation="4.46296"/>
  </filter>
  <filter id="ad" x="-.09716" y="-.32885" width="1.1943" height="1.6577">
   <feGaussianBlur stdDeviation="3.59867"/>
  </filter>
  <linearGradient id="a">
   <stop stop-color="#fff" offset="0"/>
   <stop stop-color="#fff" stop-opacity="0" offset="1"/>
  </linearGradient>
  <linearGradient id="d">
   <stop stop-color="#4a0" offset="0"/>
   <stop stop-color="#4a0" stop-opacity="0" offset="1"/>
  </linearGradient>
  <linearGradient id="aa" x1="-738.86" x2="-277.53" y1="1003.6" y2="1475" gradientUnits="userSpaceOnUse">
   <stop stop-color="#d4ff2a" offset="0"/>
   <stop stop-color="#d4ff2a" stop-opacity="0" offset="1"/>
  </linearGradient>
  <linearGradient id="z" x1="-397.53" x2="-550.49" y1="1400.8" y2="1078.1" gradientUnits="userSpaceOnUse">
   <stop stop-color="#450" stop-opacity=".61475" offset="0"/>
   <stop stop-color="#450" stop-opacity="0" offset="1"/>
  </linearGradient>
  <linearGradient id="y" x1="1537.7" x2="1694.3" y1="-377.18" y2="-268.08" gradientUnits="userSpaceOnUse">
   <stop stop-color="#aad400" offset="0"/>
   <stop stop-color="#aad400" stop-opacity="0" offset="1"/>
  </linearGradient>
  <linearGradient id="x" x1="1727.3" x2="1642.2" y1="-226.81" y2="-271.81" gradientUnits="userSpaceOnUse">
   <stop stop-color="#222b00" offset="0"/>
   <stop stop-color="#222b00" stop-opacity="0" offset="1"/>
  </linearGradient>
  <linearGradient id="w" x1="1699.1" x2="1657.6" y1="1628.1" y2="1349" gradientUnits="userSpaceOnUse">
   <stop stop-color="#999" offset="0"/>
   <stop stop-color="#999" stop-opacity="0" offset="1"/>
  </linearGradient>
  <linearGradient id="u" x1="-257.16" x2="-555.39" y1="663.16" y2="470.92" gradientTransform="matrix(1.0284 0 .1157 1.2496 2272.3 -256.73)" gradientUnits="userSpaceOnUse">
   <stop stop-color="#c1c1c1" offset="0"/>
   <stop stop-color="#c1c1c1" stop-opacity="0" offset="1"/>
  </linearGradient>
  <linearGradient id="t" x1="1193.5" x2="916.33" y1="41.067" y2="-138.93" gradientUnits="userSpaceOnUse">
   <stop stop-color="#ccc" offset="0"/>
   <stop stop-color="#ccc" stop-opacity="0" offset="1"/>
  </linearGradient>
  <linearGradient id="s" x1="1710.5" x2="1916.9" y1="-157.21" y2="85.058" gradientUnits="userSpaceOnUse">
   <stop stop-color="#666" offset="0"/>
   <stop stop-color="#666" stop-opacity="0" offset="1"/>
  </linearGradient>
  <linearGradient id="o" x2="0" y1="597.41" y2="-357.28" gradientUnits="userSpaceOnUse">
   <stop stop-color="#8a916f" offset="0"/>
   <stop stop-color="#8a916f" stop-opacity="0" offset="1"/>
  </linearGradient>
  <linearGradient id="l" x2="0" y1="-1322.7" y2="-1064.1" gradientUnits="userSpaceOnUse">
   <stop stop-color="#f6ffd5" offset="0"/>
   <stop stop-color="#f6ffd5" stop-opacity="0" offset="1"/>
  </linearGradient>
  <linearGradient id="k" x1="2583.9" x2="2305.1" y1="989.71" y2="274.52" gradientUnits="userSpaceOnUse">
   <stop stop-color="#338000" offset="0"/>
   <stop stop-color="#338000" stop-opacity="0" offset="1"/>
  </linearGradient>
  <linearGradient id="v" x1="1809.2" x2="1741.9" y1="1576.2" y2="1459" gradientUnits="userSpaceOnUse" xlink:href="#a"/>
  <linearGradient id="r" x1="2125.7" x2="1919.3" y1="815.01" y2="330.31" gradientUnits="userSpaceOnUse" xlink:href="#a"/>
  <linearGradient id="q" x1="2594.5" x2="2525.7" y1="770.03" y2="793.71" gradientUnits="userSpaceOnUse" xlink:href="#a"/>
  <linearGradient id="p" x1="2577.1" x2="2727.4" y1="1530.3" y2="1484.3" gradientUnits="userSpaceOnUse" xlink:href="#a"/>
  <linearGradient id="n" x1="2711.2" x2="2646.2" y1="-1293.9" y2="-1235.3" gradientUnits="userSpaceOnUse" xlink:href="#a"/>
  <linearGradient id="m" x2="0" y1="-567.59" y2="283.84" gradientUnits="userSpaceOnUse" xlink:href="#d"/>
  <radialGradient id="i" cx="3919.2" cy="-387.41" r="247.73" gradientTransform="matrix(3.0841 3.6906 -3.2286 2.698 -9793.1 -13700)" gradientUnits="userSpaceOnUse">
   <stop stop-color="#008000" offset="0"/>
   <stop stop-color="#008000" stop-opacity="0" offset="1"/>
  </radialGradient>
  <radialGradient id="j" cx="3071.8" cy="-341.22" r="266.41" gradientTransform="matrix(-2.3294e-7 .6037 -.52844 -1.9947e-7 2294.7 -2873.4)" gradientUnits="userSpaceOnUse" xlink:href="#d"/>
 </defs>
 <g transform="matrix(.28126 .07536 -.07536 .28126 -267.73 166.32)">
  <g transform="translate(2375.9 -1713.2)">
   <path d="m-498.29 1079.7c-88.963 1.5391-172.83 56.638-214.85 134.2-7.2358 11.316-26.953 38.035-23.892 52.044 20.943 13.416 48.478 33.174 68.373 21.024 2.5303-13.451 8.6668-1.8205 9.9333-25.289 1.8464-34.215 55.234-73.601 72.218-88.797 47.314-36.399 115.72-38.051 167.48-10.118 48.517 23.654 83.418 66.82 113.31 110.45 45.222 63.662 85.925 131.37 112.23 205.2 28.402 72.503 48.334 147.95 66.466 223.56 8.7446 46.777 202.57 737.67 185.26 784.15 4.394 17 21.776-0.7873 37.103-6.2624 17.701-6.5395 83.518-9.5523 86.949-27.019-45.08-42.625-227.64-695.74-232.42-725.87-15.182-83.587-38.621-165.55-67.292-245.47-35.293-90.71-79.052-178.67-135.6-258.1-32.693-45.052-72.008-86.861-121.04-114.18-38.056-20.064-81.236-30.295-124.24-29.541z" fill="#008000" stroke="#1e7512" stroke-width="3"/>
   <path d="m-728.18 1250.3c2.0203-7.071 11.112-23.234 15.152-25.254" fill="none" filter="url(#ax)" opacity=".84426" stroke="#fff" stroke-width="5"/>
   <path d="m-498.29 1079.7c-88.963 1.5391-172.83 56.637-214.85 134.2-7.2358 11.316-26.953 38.035-23.892 52.044 20.943 13.416 48.478 33.174 68.373 21.025 2.5303-13.451 8.6668-1.8206 9.9333-25.289 1.8464-34.215 55.234-73.601 72.218-88.797 47.314-36.399 115.72-38.051 167.48-10.119 48.517 23.654 83.418 66.82 113.31 110.45 45.222 63.662 85.925 131.37 112.23 205.2 28.402 72.503 48.334 147.95 66.466 223.56 8.7446 46.777 202.57 737.67 185.26 784.15 4.3939 17 21.776-0.7872 37.103-6.2624 17.701-6.5394 83.518-9.5522 86.95-27.019-45.08-42.625-227.64-695.74-232.42-725.87-15.182-83.587-38.621-165.55-67.292-245.47-35.293-90.71-79.052-178.67-135.6-258.1-32.693-45.052-72.008-86.861-121.04-114.18-38.056-20.064-81.236-30.296-124.24-29.541z" fill="none" stroke="#1e7512" stroke-width="3"/>
   <path d="m-665.94 1276.3c-4.0406-5.0508-43.437-20.203-51.518-22.223" fill="none" filter="url(#f)" stroke="#222b00" stroke-width="5"/>
   <path d="m-669.49 1276.5c-4.0406-5.0507-24.244-16.162-32.325-18.183" fill="#450" filter="url(#f)" stroke="#450" stroke-width="5"/>
   <path d="m-498.29 1079.7c-88.963 1.5391-172.83 56.638-214.85 134.2-7.2358 11.316-26.953 38.035-23.892 52.044 20.229-0.8692 49.906 4.6022 68.373 21.025 2.5303-13.451 8.6668-1.8205 9.9333-25.289 1.8464-34.215 55.234-73.601 72.218-88.797 47.314-36.399 115.72-38.051 167.48-10.118 48.517 23.654 83.418 66.82 113.31 110.45 45.222 63.662 85.925 131.37 112.23 205.2 28.402 72.503 48.334 147.95 66.466 223.56 8.7446 46.777 202.57 737.67 185.26 784.15 4.3939 17 21.776-0.7873 37.103-6.2624 17.701-6.5395 83.518-9.5523 86.95-27.019-45.08-42.625-227.64-695.74-232.42-725.87-15.182-83.587-38.621-165.55-67.292-245.47-35.293-90.71-79.052-178.67-135.6-258.1-32.693-45.052-72.008-86.861-121.04-114.18-38.056-20.064-81.236-30.296-124.24-29.541h1e-4z" fill="url(#aa)" opacity=".69672" stroke="#1e7512" stroke-width="3"/>
   <path d="m-723.83 1247.9c50.508-106.07 169.71-187.38 301.53-149.5" fill="none" filter="url(#aw)" stroke="#efa" stroke-width="8"/>
   <path d="m-498.29 1079.7c-88.963 1.5391-172.83 56.638-214.85 134.2-7.2358 11.316-26.953 38.035-23.892 52.044 20.943 13.416 48.478 33.174 68.373 21.025 2.5303-13.451 8.6668-1.8205 9.9333-25.289 1.8464-34.215 55.234-73.601 72.218-88.797 47.314-36.399 115.72-38.051 167.48-10.118 48.517 23.654 83.418 66.82 113.31 110.45 45.222 63.662 85.925 131.37 112.23 205.2 28.403 72.503 48.335 147.95 66.466 223.56 8.7446 46.777 202.57 737.67 185.26 784.15 4.3939 17 21.776-0.7872 37.103-6.2623 17.701-6.5395 83.518-9.5523 86.95-27.019-45.08-42.625-227.64-695.74-232.42-725.87-15.182-83.587-38.621-165.55-67.292-245.47-35.293-90.71-79.052-178.67-135.6-258.1-32.693-45.052-72.008-86.861-121.04-114.18-38.056-20.064-81.236-30.296-124.24-29.541z" fill="url(#z)" stroke="#1e7512" stroke-width="3"/>
  </g>
  <path d="m1707.6-432.66c-8.0354-5.4953-17.148-9.0822-26.183-12.523-8.3694-3.1555-16.833-6.3237-25.734-7.5425-4.0622-0.62893-8.1967-0.85351-12.303-0.70205-10.929 0.99985-21.128 6.7823-28.317 15.046-7.4154 8.1198-13.873 17.075-19.736 26.384-3.7073 5.8977-7.2809 11.886-10.708 17.953-12.475 22.403-22.108 46.391-28.798 71.179-5.0478 18.295-8.7266 36.974-11.085 55.813-2.2436 18.523-3.4154 37.197-3.0953 55.86 0.2197 8.1733 0.5785 16.369 1.7534 24.465" fill="none" filter="url(#aq)" stroke="#f2f2f2" stroke-linecap="round" stroke-width="4.752"/>
  <path transform="matrix(.95689 0 0 .95689 459.9 81.031)" d="m1301.6-533.53c-8.0354-5.4953-17.148-9.0822-26.183-12.523-8.3694-3.1555-16.833-6.3237-25.734-7.5425-4.0622-0.62893-8.1967-0.85351-12.303-0.70205-10.929 0.99985-21.128 6.7823-28.317 15.046-7.4154 8.1198-13.873 17.075-19.736 26.384-3.7073 5.8977-7.2809 11.886-10.708 17.953-12.475 22.403-22.108 46.391-28.798 71.179-5.0478 18.295-8.7266 36.974-11.085 55.813-2.2436 18.523-3.4154 37.197-3.0953 55.86 0.2197 8.1733 0.5785 16.369 1.7534 24.465" fill="none" filter="url(#ar)" opacity=".55605" stroke="#f2f2f2" stroke-linecap="round" stroke-width="10.451"/>
  <path d="m1642.4-456.23c-11.189 1.0146-21.63 6.8827-28.99 15.268-7.5918 8.24-14.203 17.328-20.206 26.774-3.7955 5.985-7.4541 12.062-10.963 18.219-12.772 22.734-22.634 47.077-29.483 72.232-5.1679 18.566-8.9342 37.521-11.349 56.639-2.2968 18.797-3.4965 37.747-3.1688 56.687 0.2249 8.2943 0.5923 16.611 1.7951 24.827 0.2361 1.7853 1.8478 2.8704 3.4894 3.2283 2.5139 0.61519 5.1215 0.70365 7.6577 1.217 20.926 3.2568 41.974 6.0265 62.562 11.108 16.294 3.7973 32.431 8.2648 48.396 13.263 11.799 3.7351 23.451 7.9165 34.991 12.388 6.2925 2.3273 12.496 4.9497 18.919 6.8863 1.7718 0.26604 3.0786-1.3857 3.4966-2.9312 1.0659-2.7913 1.8308-5.6897 2.8694-8.4928 5.1193-15.56 10.502-31.052 14.617-46.919s6.9001-32.076 8.5358-48.384c1.7801-18.757 2.4994-37.68 0.8308-56.473-1.4924-18.725-4.6098-37.267-6.7831-55.916-1.6941-13.102-2.7068-26.375-6.2486-39.153-2.1612-7.153-5.0169-14.115-8.6029-20.673-4.0332-7.3772-9.5569-14.065-16.619-18.72-8.2266-5.5767-17.556-9.2167-26.806-12.709-8.5685-3.2022-17.234-6.4173-26.346-7.6542-4.1588-0.63824-8.3916-0.86613-12.595-0.71244z" fill="#008000" stroke="#1e7512" stroke-width="4.8437"/>
  <path d="m1641.9-456.74c-11.189 1.0146-21.63 6.8827-28.99 15.268-7.5918 8.24-14.203 17.328-20.206 26.774-3.7955 5.985-7.4541 12.062-10.963 18.219-12.772 22.734-22.634 47.077-29.483 72.232-5.1679 18.566-8.9342 37.521-11.349 56.639-2.2969 18.797-3.4966 37.747-3.1689 56.687 0.2249 8.2943 0.5923 16.611 1.7951 24.827 0.2362 1.7853 1.8478 2.8704 3.4894 3.2283 2.5139 0.61519 5.1215 0.70365 7.6577 1.217 20.926 3.2568 41.974 6.0265 62.562 11.108 16.294 3.7973 32.431 8.2648 48.396 13.263 11.799 3.7351 23.451 7.9165 34.991 12.388 6.2925 2.3273 12.496 4.9497 18.919 6.8863 1.7719 0.26604 3.0786-1.3857 3.4966-2.9312 1.0659-2.7913 1.8308-5.6897 2.8695-8.4928 5.1192-15.56 10.502-31.052 14.617-46.919s6.9001-32.076 8.5359-48.384c1.78-18.757 2.4993-37.68 0.8307-56.473-1.4924-18.725-4.6098-37.267-6.7831-55.916-1.6941-13.102-2.7068-26.375-6.2486-39.153-2.1612-7.153-5.0169-14.115-8.6029-20.673-4.0331-7.3772-9.5569-14.065-16.619-18.72-8.2266-5.5767-17.556-9.2167-26.806-12.709-8.5685-3.2022-17.234-6.4173-26.346-7.6542-4.1588-0.63824-8.3916-0.86614-12.595-0.71244z" fill="url(#y)"/>
  <path d="m1615.9-400.17c-27.143 32.857-45.714 125-51.428 188.57" fill="#f6ffd5" filter="url(#at)" stroke="#e5ff80" stroke-width="25"/>
  <path transform="matrix(.95689 0 0 .95689 462.76 86.745)" d="m1249.7-553.6c-4.0622-0.62893-8.1967-0.85351-12.303-0.70205-10.929 0.99985-21.128 6.7823-28.317 15.046" fill="none" filter="url(#as)" opacity=".36475" stroke="#efa" stroke-linecap="round" stroke-width="19.02"/>
  <path d="m1642.4-456.23c-11.189 1.0146-21.63 6.8827-28.99 15.268-7.5918 8.24-14.203 17.328-20.206 26.774-3.7955 5.985-7.4541 12.062-10.963 18.219-12.772 22.734-22.634 47.077-29.483 72.232-5.1679 18.566-8.9342 37.521-11.349 56.639-2.2969 18.797-3.4966 37.747-3.1689 56.687 0.2249 8.2943 0.5923 16.611 1.7951 24.827 0.2362 1.7853 1.8478 2.8704 3.4894 3.2283 2.5139 0.61519 5.1215 0.70365 7.6577 1.217 20.926 3.2568 41.974 6.0265 62.562 11.108 16.294 3.7973 32.431 8.2648 48.396 13.263 11.799 3.7351 23.451 7.9165 34.991 12.388 6.2925 2.3273 12.496 4.9497 18.919 6.8863 1.7719 0.26604 3.0786-1.3857 3.4966-2.9312 1.0659-2.7913 1.8308-5.6897 2.8695-8.4928 5.1192-15.56 10.502-31.052 14.617-46.919s6.9001-32.076 8.5359-48.384c1.78-18.757 2.4993-37.68 0.8307-56.473-1.4924-18.725-4.6098-37.267-6.7831-55.916-1.6941-13.102-2.7068-26.375-6.2486-39.153-2.1612-7.153-5.0169-14.115-8.6029-20.673-4.0331-7.3772-9.5569-14.065-16.619-18.72-8.2266-5.5767-17.556-9.2167-26.806-12.709-8.5685-3.2022-17.234-6.4173-26.346-7.6542-4.1588-0.63824-8.3916-0.86614-12.595-0.71244z" fill="none" stroke="#1e7512" stroke-width="4.8437"/>
  <path d="m1641.8-456.17c-11.189 1.0146-21.63 6.8827-28.99 15.268-7.5918 8.24-14.203 17.328-20.206 26.774-3.7955 5.985-7.4541 12.062-10.963 18.219-12.772 22.734-22.634 47.077-29.483 72.232-5.1679 18.566-8.9342 37.521-11.349 56.639-2.2969 18.797-3.4966 37.747-3.1689 56.687 0.2249 8.2943 0.5923 16.611 1.7951 24.827 0.2362 1.7853 1.8478 2.8704 3.4894 3.2283 2.5139 0.61519 5.1215 0.70365 7.6577 1.217 20.926 3.2568 41.975 6.0265 62.562 11.108 16.294 3.7973 32.431 8.2648 48.396 13.263 11.799 3.7351 23.451 7.9165 34.991 12.388 6.2925 2.3273 12.496 4.9497 18.919 6.8863 1.7719 0.26604 3.0786-1.3857 3.4966-2.9312 1.0659-2.7913 1.8308-5.6897 2.8695-8.4928 5.1192-15.56 10.502-31.052 14.617-46.919s6.9001-32.076 8.5359-48.384c1.78-18.757 2.4993-37.68 0.8307-56.473-1.4924-18.725-4.6098-37.267-6.7831-55.916-1.6941-13.102-2.7068-26.375-6.2486-39.153-2.1612-7.153-5.0169-14.115-8.6029-20.673-4.0331-7.3772-9.5569-14.065-16.619-18.72-8.2266-5.5767-17.556-9.2167-26.806-12.709-8.5685-3.2022-17.234-6.4173-26.346-7.6542-4.1588-0.63824-8.3916-0.86614-12.595-0.71244z" fill="url(#x)" filter="url(#ap)"/>
  <g transform="translate(-106.49 -801.88)">
   <path d="m1487.8 1071.5c3.0457 36.66 6.3425 74.922 14.688 113.38 53.118 244.76 74.843 400.96 180.42 441.75 101.01-1.5633 188.01-230.43 227.42-386.83-19.597-188.11-33.098-127.77-190.58-133.61-115.06 2.1047-148.29-11.035-231.96-34.688z" fill="#fff" stroke="#1e7512" stroke-width="3"/>
   <path d="m1487.8 1071.5c3.0457 36.66 6.3425 74.922 14.688 113.38 53.118 244.76 74.843 400.96 180.42 441.75 101.01-1.5633 188.01-230.43 227.42-386.83-19.597-188.11-33.098-127.77-190.58-133.61-115.06 2.1047-148.29-11.035-231.96-34.688z" fill="url(#w)" stroke="#1e7512" stroke-width="3"/>
   <path d="m1862.9 1212.4c1.4286 57.143-107.14 348.57-120 355.71" fill="none" filter="url(#av)" opacity=".3722" stroke="#000" stroke-width="15"/>
   <path d="m1685.7 1619.5c-17.143-12.857-81.429-317.14-85.714-371.43" fill="none" filter="url(#au)" opacity=".92377" stroke="#fff" stroke-width="3"/>
   <path d="m1487.8 1071.5c3.0457 36.66 6.3425 74.922 14.688 113.38 53.118 244.76 74.843 400.96 180.42 441.75 101.01-1.5633 188.01-230.43 227.42-386.83-19.597-188.11-33.098-127.77-190.58-133.61-115.06 2.1047-148.29-11.035-231.96-34.688z" fill="url(#v)" stroke="#1e7512" stroke-width="3"/>
  </g>
  <path d="m1583.1 813.79c12.857-4.2857 102.86-284.29 88.572-410" fill="none" filter="url(#ay)" opacity=".46637" stroke="#000" stroke-width="20"/>
  <path d="m1720.7-150.71c-3.0551 4.5659-2.0689 10.537 0.031 15.279 10.726 30.038 17.107 61.419 22.058 92.87 4.1928 26.446 7.2235 53.058 10.794 79.591 3.3784 25.814 7.5867 51.522 12.856 77.018 11.49 55.753 24.375 111.2 36.417 166.84 6.5754 30.118 12.76 60.326 18.077 90.695 2.9998 16.815 5.7258 33.678 8.8883 50.464 7.1767 38.694 15.742 77.12 25.294 115.29 3.2947 13.063 6.6718 26.109 10.551 39.013 4.3714 15.137 8.8832 30.232 13.471 45.305 6.064 19.933 12.659 39.735 20.695 58.966 6.1529 14.491 13.447 28.519 22.208 41.608 10.089 15.173 21.574 29.477 34.731 42.095 12.55 11.686 27.272 20.981 43.144 27.432 18.329 7.6444 37.475 13.168 56.798 17.642 12.149 2.6485 24.438 5.0369 36.885 5.5511 5.1848-0.1331 10.003-4.3897 10.349-9.659 0.7709-6.5173-2.5219-12.488-4.6858-18.413-11.065-28.342-21.639-56.873-32.165-85.419-16.379-44.965-31.417-90.559-41.541-137.39-4.1462-19.106-7.438-38.394-9.8557-57.795-4.0792-29.72-7.8644-59.482-12.291-89.152-5.5012-36.938-12.209-73.774-22.397-109.73-7.5153-26.282-16.391-52.156-25.873-77.785-13.412-35.65-28.998-70.498-47.072-104.03-9.8514-18.235-20.396-36.097-31.78-53.415-9.1057-13.912-18.814-27.414-28.7-40.777-15.076-20.74-29.826-41.733-43.53-63.414-13.608-21.31-26.198-43.252-38.512-65.332-10.059-17.412-21.844-34.119-36.966-47.503-2.3256-2.0224-4.6937-3.9963-7.139-5.8722-0.2476-7e-3 -0.4934 5.1e-4 -0.7392 0.0322z" fill="#fff" stroke="#1e7512" stroke-width="3.401"/>
  <path d="m1720.7-150.71c-3.0551 4.5659-2.0689 10.537 0.031 15.279 10.726 30.038 17.107 61.419 22.058 92.87 4.1928 26.446 7.2235 53.058 10.794 79.591 3.3784 25.814 7.5867 51.522 12.856 77.018 11.49 55.753 24.375 111.2 36.417 166.84 6.5754 30.118 12.76 60.326 18.077 90.695 2.9998 16.815 5.7258 33.678 8.8883 50.464 7.1767 38.694 15.742 77.12 25.294 115.29 3.2947 13.063 6.6718 26.109 10.551 39.013 4.3714 15.137 8.8832 30.232 13.471 45.305 6.064 19.933 12.659 39.735 20.695 58.966 6.1529 14.491 13.447 28.519 22.208 41.608 10.089 15.173 21.574 29.477 34.731 42.095 12.55 11.686 27.272 20.981 43.144 27.432 18.329 7.6444 37.475 13.168 56.798 17.642 12.149 2.6485 24.438 5.0369 36.885 5.5511 5.1848-0.1331 10.003-4.3897 10.349-9.659 0.7709-6.5173-2.5219-12.488-4.6858-18.413-11.065-28.342-21.639-56.873-32.165-85.419-16.379-44.965-31.417-90.559-41.541-137.39-4.1462-19.106-7.438-38.394-9.8557-57.795-4.0792-29.72-7.8644-59.482-12.291-89.152-5.5012-36.938-12.209-73.774-22.397-109.73-7.5153-26.282-16.391-52.156-25.873-77.785-13.412-35.65-28.998-70.498-47.072-104.03-9.8514-18.235-20.396-36.097-31.78-53.415-9.1057-13.912-18.814-27.414-28.7-40.777-15.076-20.74-29.826-41.733-43.53-63.414-13.608-21.31-26.198-43.252-38.512-65.332-10.059-17.412-21.844-34.119-36.966-47.503-2.3256-2.0224-4.6937-3.9963-7.139-5.8722-0.2476-7e-3 -0.4934 5.1e-4 -0.7392 0.0322z" fill="url(#u)" stroke="#1e7512" stroke-width="3.401"/>
  <g transform="translate(642.86 325.71)" stroke="#1e7512" stroke-width="3.0832">
   <path d="m1071.1-422.85c-21.305 3.189-34.486 23.223-41.859 41.772-22.193 49.507-29.823 104.81-24.797 158.67 6.2803 75.604 6.1248 151.62 13.091 227.17 4.9964 38.774 13.24 78.906 36.27 111.33 24.823 24.329 62.332 33.212 96.014 27.124 23.94-7.2903 39.001-32.451 38.371-56.825 3.6198-36.468 1.9551-73.198 3.7049-109.75-2.3829-41.921-6.0781-83.844-4.741-125.88-1.1765-53.319-16.699-104.87-32.312-155.43-9.4156-34.302-16.03-71.914-41.229-98.812-10.994-11.379-26.223-20.353-42.513-19.365z" fill="#fff"/>
   <path d="m1071.1-422.85c-21.305 3.189-34.486 23.223-41.859 41.772-22.193 49.507-29.823 104.81-24.797 158.67 6.2803 75.604 6.1248 151.62 13.091 227.17 4.9964 38.774 13.24 78.906 36.27 111.33 24.823 24.329 62.332 33.212 96.014 27.124 23.94-7.2903 39.001-32.451 38.371-56.825 3.6198-36.468 1.955-73.198 3.7048-109.75-1.163-20.46-2.6386-40.92-3.6891-61.394-1.102-21.475-1.7364-42.965-1.0519-64.485-1.1765-53.319-16.699-104.87-32.312-155.43-9.4156-34.302-16.03-71.914-41.229-98.812-10.994-11.379-26.224-20.353-42.513-19.365z" fill="url(#t)"/>
  </g>
  <path d="m1771.8 34.128c12.122 26.264 54.548 333.35 46.467 402.04" fill="none" filter="url(#bi)" opacity=".7541" stroke="#000" stroke-width="10"/>
  <g transform="matrix(.99518 -.0981 .0981 .99518 678.23 505.61)">
   <g transform="translate(-460.09 -415.82)">
    <path d="m1525.3 94.738c2.0203 8.0812-30.305 139.4-42.426 169.71" fill="none" filter="url(#h)" opacity=".07317" stroke="#000" stroke-width="10"/>
    <path d="m1489.2-150.22c-3.2597 1.0052-5.728 3.6131-8.1526 5.895-7.762 8.2556-10.853 19.438-14.435 29.888-13.034 37.983-24.28 76.687-31.176 116.29-6.0882 33.249-9.3781 66.933-11.676 100.63-3.3096 42.157-7.8701 84.205-11.288 126.35-2.6407 43.831-0.8835 87.831-4.5774 131.61-1.9579 25.222-5.3659 50.387-5.2792 75.725 0.2199 8.0557 0.2779 16.383 3.5359 23.91 4.1968 10.707 12.736 19.93 23.717 23.765 13.022 4.9784 27.593 6.0934 41.153 2.7567 11.02-3.073 20.869-10.949 25.242-21.659 5.9483-12.451 8.1688-26.726 16.687-37.888 1.9091-2.5121 4.4022-5.8748 7.9889-5.2332 4.0263 1.094 5.6587 5.5144 6.873 9.0812 1.529 5.1579 3.377 10.222 5.9604 14.953 5.9545 11.538 13.602 22.295 22.99 31.293 8.3117 7.6673 18.186 14.28 29.445 16.459 4.3393 0.58251 9.0308-1.6527 10.74-5.8045 3.5443-6.5395 2.6073-14.217 3.5846-21.342 2.3187-29.123 4.172-58.281 5.4488-87.469 1.2572-24.777 1.7975-49.586 2.145-74.39 0.3956-31.962 1.7826-63.951 0.1185-95.901-1.595-34.893-4.1171-69.742-7.4163-104.51-2.9521-33.073-6.2253-66.173-12.342-98.836-4.1522-22.92-8.0493-45.887-12.325-68.785-3.7873-19.283-8.5265-38.473-15.823-56.754-2.5898-6.2548-6.7332-12.059-12.652-15.537-10.709-7.0988-23.457-10.021-35.854-12.638-7.4076-1.3048-14.967-2.2397-22.486-1.8998l-0.1455 0.0363z" fill="#dcdcdc" stroke="#1e7512" stroke-width="2.9182"/>
    <path d="m1524.3-129.07c15.714 58.571 46.653 489.86 30.938 582.71" fill="none" filter="url(#bl)" stroke="#000" stroke-width="10"/>
    <path d="m1502.9-117.92c8.5714 44.286 12.857 338.57 4.2857 544.29" fill="none" filter="url(#bk)" opacity=".61382" stroke="#000" stroke-width="10"/>
   </g>
   <path d="m1039-547.35c-12.122 50.508-34.345 404.06-30.305 583.87" fill="none" filter="url(#bj)" stroke="#000" stroke-width="10"/>
   <path d="m1119.8 52.678c10.102-48.487 8.0812-474.77-38.386-587.91" fill="none" filter="url(#bh)" stroke="#000" stroke-width="10"/>
   <path d="m1073.3-3.8903c6.0609-40.406-6.061-490.93-16.162-537.4" fill="none" filter="url(#bg)" stroke="#000" stroke-width="10"/>
   <path d="m1035.7-545.29c-20 55.182-19.51 158.97-21.877 225.09" fill="none" filter="url(#bd)" stroke="#fff" stroke-width="3"/>
   <path transform="matrix(1.2482 0 0 1.1518 -271.28 23.78)" d="m1094.3-439.07a35.714 60 0 1 1 -71.429 0 35.714 60 0 1 1 71.429 0z" fill="#fff" filter="url(#bb)" opacity=".52439" stroke="#fff" stroke-width="3"/>
   <g transform="translate(-460.95 -415.82)" opacity=".47967">
    <path d="m1525.3 94.738c2.0203 8.0812-30.305 139.4-42.426 169.71" fill="none" filter="url(#h)" opacity=".07317" stroke="#000" stroke-width="10"/>
    <path d="m1489.2-150.22c-3.2597 1.0052-5.728 3.6131-8.1526 5.895-7.762 8.2556-10.853 19.438-14.435 29.888-13.034 37.983-24.28 76.687-31.176 116.29-6.0882 33.249-9.3781 66.933-11.676 100.63-3.3096 42.157-7.8701 84.205-11.288 126.35-2.6407 43.831-0.8835 87.831-4.5774 131.61-1.9579 25.222-5.3659 50.387-5.2792 75.725 0.2199 8.0557 0.2779 16.383 3.5359 23.91 4.1968 10.707 12.736 19.93 23.717 23.765 13.022 4.9784 27.593 6.0934 41.153 2.7567 11.02-3.073 20.869-10.949 25.242-21.659 5.9483-12.451 8.1688-26.726 16.687-37.888 1.9091-2.5121 4.4022-5.8748 7.9889-5.2332 4.0263 1.094 5.6587 5.5144 6.873 9.0812 1.529 5.1579 3.377 10.222 5.9604 14.953 5.9545 11.538 13.602 22.295 22.99 31.293 8.3117 7.6673 18.186 14.28 29.445 16.459 4.3393 0.58251 9.0308-1.6527 10.74-5.8045 3.5443-6.5395 2.6073-14.217 3.5846-21.342 2.3187-29.123 4.172-58.281 5.4488-87.469 1.2572-24.777 1.7975-49.586 2.145-74.39 0.3956-31.962 1.7826-63.951 0.1185-95.901-1.595-34.893-4.1171-69.742-7.4163-104.51-2.9521-33.073-6.2253-66.173-12.342-98.836-4.1522-22.92-8.0493-45.887-12.325-68.785-3.7873-19.283-8.5265-38.473-15.823-56.754-2.5898-6.2548-6.7332-12.059-12.652-15.537-10.709-7.0988-23.457-10.021-35.854-12.638-7.4076-1.3048-14.967-2.2397-22.486-1.8998l-0.1455 0.0363z" fill="#dcdcdc" stroke="#1e7512" stroke-width="2.9182"/>
   </g>
   <path d="m1027.8-82.502c-6.4667 0.39011-12.044 4.3694-16.574 8.7182-4.5678 4.6812-9.424 9.1292-14.947 12.671-6.496 4.2605-13.677 7.4256-21.15 9.5198-7.5799 2.6339-14.685 7.9991-17.527 15.728-4.3581 10.687-4.0604 22.461-3.8131 33.789 0.2849 10.344 0.6155 20.866 3.6546 30.833 2.3849 6.0822 8.2637 10.86 14.9 11.16 9.6078 1.0557 19.415-2.0108 27.248-7.5331 5.5198-4.1421 9.3734-10.376 10.65-17.154 2.7905-10.15 1.7565-21.155 6.1348-30.898 3.5202-7.7043 11.206-12.848 19.32-14.659 7.4959-1.8045 15.27-1.7995 22.931-1.845 5.8994 0.28475 11.606 2.8482 15.734 7.0707 7.2735 6.891 10.803 16.806 12.069 26.552 1.2185 8.0265 2.7212 16.448 7.803 23.044 4.7464 6.6482 11.116 12.379 18.754 15.441 3.5636 0.94305 6.8829-1.9362 8.0859-5.1 1.4262-3.7982 1.5116-7.9231 2.1016-11.9 2.1824-19.58 2.4848-39.573-1.375-58.969-1.0896-5.059-2.3477-10.213-5.3046-14.552-2.6432-4.1713-6.503-7.4885-10.926-9.6535-7.422-4.2074-15.456-7.373-22.349-12.479-5.555-3.5762-12.132-5.9518-18.812-5.4208-8.2986-0.11538-16.704-0.55098-24.699-2.9487-3.9117-0.79552-7.8972-1.5937-11.909-1.4152z" fill="#d4ff2a" filter="url(#g)"/>
   <path transform="matrix(.73137 0 0 .68848 -171.86 -292.75)" d="m1650.7 331.44c-10.678 2.9966-17.841 12.022-26.645 18.143-10.295 7.495-23.082 10.63-33.261 18.295-5.379 4.3084-8.6875 10.724-9.9062 17.438-2.473 11.318-1.7535 23-1.2075 34.477 0.7825 8.9264 2.1748 18.021 5.9099 26.215 7.7876 8.9583 23.95 7.5598 30.236-2.4595 7.9364-9.9096 9.884-22.807 13.058-34.725 4.1304-13.901 11.439-27.667 23.751-35.929 16.904-11.553 41.119-10.817 57.277 1.7719 15.623 11.165 25.49 29.165 28.651 47.916 1.8408 9.1212 2.4696 18.622 6.2619 27.234 2.9789 3.0444 8.5231-0.28076 8.1563-4.25 1.0807-11.569 0.1978-23.23 1.4154-34.795 0.9143-12.589 2.6484-25.583-0.9154-37.924-2.3195-7.612-7.9584-13.751-14.656-17.844-8.2976-5.15-17.614-8.3031-26.29-12.723-9.9377-4.5945-20.549-8.0132-31.533-8.6983-9.837-1.1076-19.74-1.8988-29.615-2.3016l-0.6866 0.16021z" fill="#0a0" filter="url(#bn)"/>
  </g>
  <path d="m1594.2-189.64c-17.223 0.67285-36.386-2.4744-51.135 8.7381-23.258 15.44-31.69 43.454-44.548 66.758-22.218 43.625-47.91 87.209-86.802 118.1-33.966 29.267-64.095 63.33-86.313 102.41-46.67 76.931-80.485 160.58-118.22 242.02-43.845 106.63-58.349 223.77-51.518 338.38 5.6798 57.673 37.259 117.12 84.858 157.48 22.481 25.578 49.304 10.17 64.618 7.1718 37.105-9.6834 70.001-30.22 103.08-48.89 60.697-37.303 115.29-87.064 150.12-149.85 37.373-63.275 58.717-134.37 74.563-205.69 13.503-56.068 22.391-113.45 22.582-171.22 1.076-74.756-9.9367-149.26-28.091-221.65-7.4958-35.395-9.7195-73.578 4.5073-107.65 10.586-30.8 24.845-63.034 18.396-96.303-6.49-24.208-31.601-40.425-56.094-39.812z" fill="#e6e6e6" stroke="#1e7512" stroke-width="3.2687"/>
  <path d="m1280 843.79c108.57-80 360-725.71 302.86-814.29-20-82.857 40-117.14 45.714-191.43" fill="none" filter="url(#c)" opacity=".54065" stroke="#535050" stroke-width="10"/>
  <path d="m1311.4 838.08c180-68.571 365.71-657.14 291.43-808.57-20-82.857 31.429-105.71 37.143-180" fill="none" filter="url(#c)" opacity=".54065" stroke="#535050" stroke-width="10"/>
  <path d="m1422.9 780.93c165.71-82.857 274.29-582.86 188.57-740-20-82.857 22.857-117.14 28.572-191.43" fill="none" filter="url(#c)" opacity=".54065" stroke="#535050" stroke-width="10"/>
  <path d="m1477.1 266.65c-5.7143 97.143-211.43 574.29-211.43 574.29" fill="#ccc" filter="url(#ao)" opacity=".23577" stroke="#000" stroke-width="10"/>
  <path d="m1280 843.79c108.57-80 360-725.71 302.86-814.29-20-82.857 40-117.14 45.714-191.43" fill="#fff" filter="url(#am)" opacity=".28455" stroke="#535050" stroke-width="5"/>
  <path d="m1214.3 795.22c-11.429-102.86 145.71-774.29 280-797.14" fill="none" filter="url(#al)" opacity=".97561" stroke="#fff" stroke-width="19"/>
  <path d="m1574.3-81.924c3.6733-17.753 14.84-34.067 30.685-43.078 13.203-12 8.5437-37.079-8.0881-43.535-18.805-14.814-50.126-7.7562-60.829 13.637-13.496 18.799-25.064 39.278-31.749 61.532-7.596 14.229-23.139 24.987-23.754 42.326 0.4253 25.448 29.175 44.954 53.106 36.871 28.697-6.4722 49.771-39.087 40.63-67.752z" fill="#fff" filter="url(#an)" opacity=".36179" stroke="#fff"/>
  <path d="m1474.8-18.4c-135.36 42.426-315.17 608.11-290.92 759.63" fill="none" filter="url(#aj)" stroke="#fff" stroke-width="19"/>
  <path d="m1256.6 838.21c36.366-58.589 276.78-688.92 280.82-785.9" fill="none" filter="url(#ak)" opacity=".3252" stroke="#000" stroke-width="8"/>
  <path d="m1694.2 321.13c-6.4667 0.39011-12.044 4.3694-16.574 8.7182-4.5678 4.6812-9.424 9.1292-14.947 12.671-6.4961 4.2605-13.677 7.4256-21.15 9.5198-7.5799 2.6339-14.685 7.9991-17.527 15.728-4.3581 10.687-4.0604 22.461-3.8131 33.789 0.2849 10.344 0.6155 20.866 3.6546 30.833 2.3849 6.0822 8.2637 10.86 14.9 11.16 9.6078 1.0557 19.415-2.0108 27.248-7.5331 5.5198-4.1421 9.3734-10.376 10.65-17.154 2.7905-10.15 1.7565-21.155 6.1348-30.898 3.5201-7.7043 11.206-12.848 19.32-14.659 7.4959-1.8045 15.27-1.7995 22.931-1.845 5.8994 0.28475 11.606 2.8482 15.734 7.0707 7.2735 6.891 10.803 16.806 12.069 26.552 1.2185 8.0266 2.7212 16.448 7.803 23.044 4.7464 6.6482 11.116 12.379 18.753 15.441 3.5636 0.94305 6.8829-1.9362 8.0859-5.1 1.4262-3.7982 1.5116-7.9231 2.1016-11.9 2.1824-19.58 2.4848-39.573-1.375-58.969-1.0896-5.059-2.3477-10.213-5.3046-14.552-2.6432-4.1713-6.503-7.4885-10.926-9.6535-7.422-4.2074-15.456-7.373-22.349-12.479-5.555-3.5762-12.132-5.9518-18.812-5.4208-8.2986-0.11538-16.704-0.55098-24.699-2.9487-3.9117-0.79552-7.8972-1.5937-11.909-1.4152z" fill="#808080" filter="url(#g)" opacity=".37705"/>
  <path d="m1717.9-152.59c-7.8109 14.692 2.2042 30.208 6.6935 44.209 33.828 93.901 61.971 189.79 98.07 282.88 34.454 86.873 61.764 176.46 83.523 267.31 17.692 69.545 30.088 140.56 52.856 208.73 14.879 43.649 41.952 82.477 75.859 113.51 20.672 18.428 42.745 36.159 68.217 47.453 6.1546 3.42 14.123 2.0535 17.86-4.2103 6.6304-9.1071 1.5921-20.198 1.9358-30.298-7.7672-135.96-21.885-273.23-65.791-402.89-27.259-82.163-56.309-164.18-96.072-241.25-23.45-43.612-54.753-82.602-90.254-116.98-40.084-40.924-80.028-82.324-113.65-128.86-11.164-13.908-21.608-29.402-36.53-39.415-0.9017-0.12224-1.8056-0.28525-2.7187-0.1875z" fill="#e6e6e6" stroke="#1e7512" stroke-width="3.46"/>
  <path d="m1694.3-116.21s54.286 385.71 62.857 525.71" fill="none" filter="url(#bm)" opacity=".18852" stroke="#000" stroke-width="10"/>
  <path d="m1716.2 449.3c7.0711-2.0203 4.0407-29.294 17.173-39.396 16.162 7.0711 21.213 48.487 49.498 54.548" fill="none" filter="url(#bf)" opacity=".70492" stroke="#000" stroke-width="5"/>
  <path d="m1844.9 45.791c109.89 114.55 243.71 564.86 249.43 733.43" fill="none" filter="url(#be)" opacity=".86099" stroke="#000" stroke-width="15"/>
  <path d="m1831.4 92.362c74.286 117.14 205.71 562.86 200 640" fill="none" filter="url(#bc)" opacity=".88341" stroke="#000" stroke-width="15"/>
  <path d="m1715.1-155.45c-7.8109 14.692 2.2042 30.208 6.6935 44.209 33.828 93.901 61.971 189.79 98.07 282.88 34.454 86.873 61.764 176.46 83.523 267.31 17.692 69.545 30.088 140.56 52.856 208.73 14.879 43.649 41.952 82.477 75.859 113.51 20.672 18.428 42.745 36.159 68.217 47.453 6.1546 3.42 14.123 2.0535 17.86-4.2103 6.6304-9.1071 1.5921-20.198 1.9358-30.298-7.7672-135.96-21.885-273.23-65.791-402.89-27.259-82.163-56.309-164.18-96.072-241.25-23.45-43.612-54.753-82.602-90.254-116.98-40.084-40.924-80.028-82.324-113.65-128.86-11.164-13.908-21.608-29.402-36.53-39.415-0.9017-0.12224-1.8056-0.28525-2.7187-0.1875z" fill="url(#s)"/>
  <path d="m1717.4-152.64c-7.8109 14.692 2.2042 30.208 6.6935 44.209 33.828 93.901 61.971 189.79 98.07 282.88 34.454 86.873 61.764 176.46 83.523 267.31 17.692 69.545 30.088 140.56 52.856 208.73 14.879 43.649 41.952 82.477 75.859 113.51 20.672 18.428 42.745 36.159 68.217 47.453 6.1546 3.42 14.123 2.0535 17.86-4.2103 6.6304-9.1071 1.5921-20.198 1.9358-30.298-7.7672-135.96-21.885-273.23-65.791-402.89-27.259-82.163-56.309-164.18-96.072-241.25-23.45-43.612-54.753-82.602-90.254-116.98-40.084-40.924-80.028-82.324-113.65-128.86-11.164-13.908-21.608-29.402-36.53-39.415-0.9017-0.12224-1.8056-0.28525-2.7187-0.1875z" fill="url(#r)"/>
  <path d="m1771.8-14.359 30.304 92.934" fill="none" filter="url(#ba)" opacity=".92825" stroke="#fff" stroke-width="5"/>
  <path d="m1721.3-137.6c36.366 88.893 46.467 119.2 74.751 210.11" fill="none" filter="url(#az)" opacity=".90583" stroke="#fff" stroke-width="5"/>
  <path d="m1702.1-440.64c9.0914-2.0203 4.0406-19.193 4.0406-19.193 62.63-138.39 241.43-195.97 378.81 21.213" fill="none" filter="url(#e)" opacity=".4877" stroke="#000" stroke-width="10"/>
  <path d="m1702.1-440.64c9.0914-2.0203 4.0406-19.193 4.0406-19.193 61.191-135.21 233.28-193.28 369.28 6.6818 3.1969 4.7004 110.42 164.1 106.5 189.29" fill="none" filter="url(#e)" opacity=".54098" stroke="#000" stroke-width="10"/>
  <path d="m2733.1-1309.7c-9.7819 0.7612-44.85 11.163-65.388 24.75-7.5167 6.6983-39.215 15.008-44.952 26.002-15.584 22.118-32.953 42.891-50.258 63.664-15.872 19.112-31.575 38.387-46.099 58.554-29.71 40.478-57.379 82.402-86.67 123.18-38.017 53.941-76.14 108.06-107.61 166.17-32.512 59.431-60.366 121.57-80.732 186.23-17.496 55.304-28.817 112.54-33.901 170.32-4.5045 49.67-6.5184 99.575-5.7497 149.45 0.9779 61.842 6.8544 123.57 16.831 184.6 8.3866 52.251 19.783 103.96 32.012 155.43 9.4494 39.99 19.383 79.866 29.743 119.63 9.456 34.184 20.457 67.916 31.671 101.56 5.1994 15.17 25.642 112.84 31.957 127.58 29.11 98.226 49.18 156.24 105.51 249.12-19.724-77.867-58.596-335.74-59.685-351.26-1.1128-51.909-23.799-123.77-28.394-175.49-17.212-66.403-36.245-147.24-37.243-219.59-0.9389-63.751 0.5279-127.55 4.8789-191.16 3.8293-55.149 9.8879-110.15 18.441-164.77 11.248-71.815 26.888-142.98 47.732-212.63 18.704-62.569 41.521-123.92 68.454-183.41 25.47-56.363 54.62-111.04 86.732-163.89 16.019-26.577 33.093-52.511 48.561-79.419 9.2158-15.982 18.289-32.047 27.384-48.098 9.3892-16.63 18.684-33.278 26.547-50.732 11.34-13.455 9.8847-16.869 26.288-23.47 20.776-4.4466 25.007-12.878 33.915-19.155 27.745-3.4809 18.314-26.633 10.023-23.152z" fill="#fff" stroke="#1e7512" stroke-width="2.79"/>
  <path d="m2663.4-1289.3c-103.26 50.64-171.05 147.68-239.22 236.41-117.15 163.9-204.71 352.09-233.37 552.67-24.116 148.92-20.922 301.59 5.4886 449.97 34.83 233.96 85.423 465.56 176.5 685.08 17.553 39.026 48.9 110.44 68.439 147.18 38.814 23.243 126.6 6.3705 106.79-33.9-13.303-40.17-75.721-121.14-102.98-177.63-87.338-204.24-153.31-417.81-195.54-635.89-27.12-155.33-39.247-315.64-13.269-471.95 27.96-143.29 89.336-278.4 170.52-399.2 63.693-102.5 139.14-197.23 220.92-285.78 15.298-19.725 36.16-40.632 39.466-65.386-0.9442-1.032-2.3324-1.7108-3.75-1.5626z" fill="#008000" stroke="#1e7512" stroke-width="2.79"/>
  <path d="m2510.9 747.26c-43.879 24.389-84.584 13.859-63.361 47.782 66.422 118.47 110.54 305.08 155.12 432.09 99.206 309.59 188.94 622.15 292.83 930.24 18.433 41.935 19.113 92.166 47.808 128.9 38.64 34.552 85.067-20.432 78.939-60.689-4.0255-41.103-36.479-72.539-47.671-111.87-129.17-334.73-223.62-681.4-339.19-1020.8-34.455-113.39-49.615-237.9-77.237-352.35-12.068-14.068-30.42 7.0164-47.241 6.7234z" fill="#2a6600" stroke="#1e7512" stroke-width="3"/>
  <path d="m2510.9 745.96c-43.879 24.389-84.584 13.859-63.361 47.782 66.422 118.47 110.54 305.08 155.12 432.09 99.206 309.59 188.94 622.15 292.83 930.24 18.433 41.935 19.113 92.166 47.808 128.9 38.64 34.552 85.067-20.432 78.939-60.689-4.0255-41.103-36.479-72.539-47.671-111.87-129.17-334.73-223.62-681.4-339.19-1020.8-34.455-113.39-49.615-237.9-77.237-352.35-12.068-14.068-30.42 7.0164-47.241 6.7234z" fill="url(#q)" stroke="#1e7512" stroke-width="3"/>
  <path d="m2510 743.13c-43.879 24.389-84.584 13.859-63.361 47.782 66.422 118.47 110.54 305.08 155.12 432.09 99.206 309.59 188.94 622.15 292.83 930.24 18.433 41.935 19.113 92.166 47.808 128.9 38.64 34.552 85.067-20.432 78.939-60.689-4.0255-41.103-36.479-72.539-47.671-111.87-129.17-334.73-223.62-681.4-339.19-1020.8-34.455-113.39-49.615-237.9-77.237-352.35-12.068-14.068-30.42 7.0164-47.241 6.7234z" fill="url(#p)" stroke="#1e7512" stroke-width="3"/>
  <path d="m2448.6 767.5 88.873-30.325" fill="none" filter="url(#b)" stroke="#cf0" stroke-width="5"/>
  <path d="m2448.6 767.5 88.873-30.325" fill="none" filter="url(#b)" stroke="#cf0" stroke-width="5"/>
  <path d="m2448.6 767.5 88.873-30.325" fill="none" filter="url(#b)" stroke="#cf0" stroke-width="5"/>
  <path d="m2448.6 767.5 88.873-30.325" fill="none" filter="url(#b)" stroke="#cf0" stroke-width="5"/>
  <path d="m2448.6 767.5 88.873-30.325" fill="none" filter="url(#b)" opacity=".39035" stroke="#cf0" stroke-width="5"/>
  <path d="m2468.8 759.42 40.406-10.102" fill="none" filter="url(#af)" stroke="#4a0" stroke-width="5"/>
  <path d="m2474.8 765.42 40.406-10.102" fill="none" filter="url(#ae)" stroke="#4a0" stroke-width="5"/>
  <path d="m2442.5 761.44 88.893-26.264" fill="none" filter="url(#ad)" stroke="#d4ff2a" stroke-width="5"/>
  <path d="m2626.4-1222.5c-216.17 252.54-458.61 775.8-317.19 1402.1" fill="none" filter="url(#ac)" stroke="#c4c8b7" stroke-width="5"/>
  <path d="m2626.4-1220.5c-111.12 131.32-181.83 264.68-236.38 396" fill="none" filter="url(#ab)" stroke="#4a0" stroke-width="5"/>
  <path d="m2734.7-1310.3c-9.7819 0.7612-44.85 11.163-65.388 24.75-7.5167 6.6983-39.215 15.008-44.952 26.002-15.584 22.118-32.953 42.891-50.258 63.664-15.872 19.112-31.575 38.387-46.099 58.554-29.71 40.478-57.379 82.402-86.67 123.18-38.017 53.941-76.14 108.06-107.61 166.17-32.512 59.431-60.366 121.57-80.732 186.23-17.496 55.304-28.817 112.54-33.901 170.32-4.5045 49.67-6.5184 99.575-5.7497 149.45 0.9779 61.842 6.8544 123.57 16.831 184.6 8.3866 52.251 19.783 103.96 32.012 155.43 9.4494 39.99 19.383 79.866 29.743 119.63 9.456 34.184 20.457 67.916 31.671 101.56 5.1994 15.17 25.642 112.84 31.957 127.58 29.11 98.226 49.18 156.24 105.51 249.12-19.724-77.867-58.596-335.74-59.685-351.26-1.1128-51.909-23.799-123.77-28.394-175.49-17.212-66.403-36.245-147.24-37.243-219.59-0.9389-63.751 0.5279-127.55 4.8789-191.16 3.8293-55.149 9.8879-110.15 18.441-164.77 11.248-71.815 26.888-142.98 47.732-212.63 18.704-62.569 41.521-123.92 68.454-183.41 25.47-56.363 54.62-111.04 86.732-163.89 16.019-26.577 33.093-52.511 48.561-79.419 9.2158-15.982 18.289-32.047 27.384-48.098 9.3892-16.63 18.684-33.278 26.547-50.731 11.34-13.455 9.8847-16.869 26.288-23.47 20.776-4.4466 25.007-12.878 33.915-19.155 27.745-3.4809 18.314-26.633 10.023-23.152z" fill="#c4c8b7" opacity=".50877" stroke="#1e7512" stroke-width="2.79"/>
  <path d="m2731.5-1309c-9.7819 0.7612-44.85 11.163-65.388 24.75-7.5167 6.6983-39.215 15.008-44.952 26.002-15.584 22.118-32.953 42.891-50.258 63.664-15.872 19.112-31.575 38.387-46.099 58.554-29.71 40.478-57.379 82.402-86.67 123.18-38.017 53.941-76.14 108.06-107.61 166.17-32.512 59.431-60.366 121.57-80.732 186.23-17.496 55.304-28.817 112.54-33.901 170.32-4.5045 49.67-6.5184 99.575-5.7497 149.45 0.9779 61.842 6.8544 123.57 16.831 184.6 8.3866 52.251 19.783 103.96 32.012 155.43 9.4494 39.99 19.383 79.866 29.743 119.63 9.456 34.184 20.457 67.916 31.671 101.56 5.1994 15.17 25.642 112.84 31.957 127.58 29.11 98.226 49.18 156.24 105.51 249.12-19.724-77.867-58.596-335.74-59.685-351.26-1.1128-51.909-23.799-123.77-28.394-175.49-17.212-66.403-36.245-147.24-37.243-219.59-0.9389-63.751 0.5279-127.55 4.8789-191.16 3.8293-55.149 9.8879-110.15 18.441-164.77 11.248-71.815 26.888-142.98 47.732-212.63 18.704-62.569 41.521-123.92 68.454-183.41 25.47-56.363 54.62-111.04 86.732-163.89 16.019-26.577 33.093-52.511 48.561-79.419 9.2158-15.982 18.289-32.047 27.384-48.098 9.3892-16.63 18.684-33.278 26.547-50.732 11.34-13.455 9.8847-16.869 26.288-23.47 20.776-4.4466 25.007-12.878 33.915-19.155 27.745-3.4809 18.314-26.633 10.023-23.152z" fill="url(#j)" stroke="#1e7512" stroke-width="2.79"/>
  <path d="m2732.7-1310.2c-9.7819 0.7612-44.85 11.163-65.388 24.75-7.5167 6.6983-39.215 15.008-44.952 26.002-15.584 22.118-32.953 42.891-50.258 63.664-15.872 19.112-31.575 38.387-46.099 58.554-29.71 40.478-57.379 82.402-86.67 123.18-38.017 53.941-76.14 108.06-107.61 166.17-32.512 59.431-60.366 121.57-80.732 186.23-17.496 55.304-28.817 112.54-33.901 170.32-4.5045 49.67-6.5184 99.575-5.7497 149.45 0.9779 61.842 6.8544 123.57 16.831 184.6 8.3866 52.251 19.783 103.96 32.012 155.43 9.4494 39.99 19.383 79.866 29.743 119.63 9.456 34.184 20.457 67.916 31.671 101.56 5.1994 15.17 25.642 112.84 31.957 127.58 29.11 98.226 49.18 156.24 105.51 249.12-19.724-77.867-58.596-335.74-59.685-351.26-1.1128-51.909-23.799-123.77-28.394-175.49-17.212-66.403-36.245-147.24-37.243-219.59-0.9389-63.751 0.5279-127.55 4.8789-191.16 3.8293-55.149 9.8879-110.15 18.441-164.77 11.248-71.815 26.888-142.98 47.732-212.63 18.704-62.569 41.521-123.92 68.454-183.41 25.47-56.363 54.62-111.04 86.732-163.89 16.019-26.577 33.093-52.511 48.561-79.419 9.2158-15.982 18.289-32.047 27.384-48.098 9.3892-16.63 18.684-33.278 26.547-50.731 11.34-13.455 9.8847-16.869 26.288-23.47 20.776-4.4466 25.007-12.878 33.915-19.155 27.745-3.4809 18.314-26.633 10.023-23.152z" fill="url(#o)" stroke="#1e7512" stroke-width="2.79"/>
  <path d="m2732-1309.2c-9.7819 0.7612-44.85 11.163-65.388 24.75-7.5167 6.6983-39.215 15.008-44.952 26.002-15.584 22.118-32.953 42.891-50.258 63.664-15.872 19.112-31.575 38.387-46.099 58.554-29.71 40.478-57.379 82.402-86.67 123.18-38.017 53.941-76.14 108.06-107.61 166.17-32.512 59.431-60.366 121.57-80.732 186.23-17.496 55.304-28.817 112.54-33.901 170.32-4.5045 49.67-6.5184 99.575-5.7497 149.45 0.9779 61.842 6.8544 123.57 16.831 184.6 8.3866 52.251 19.783 103.96 32.012 155.43 9.4494 39.99 19.383 79.866 29.743 119.63 9.456 34.184 20.457 67.916 31.671 101.56 5.1994 15.17 25.642 112.84 31.957 127.58 29.11 98.226 49.18 156.24 105.51 249.12-19.724-77.867-58.596-335.74-59.685-351.26-1.1128-51.909-23.799-123.77-28.394-175.49-17.212-66.403-36.245-147.24-37.243-219.59-0.9389-63.751 0.5279-127.55 4.8789-191.16 3.8293-55.149 9.8879-110.15 18.441-164.77 11.248-71.815 26.888-142.98 47.732-212.63 18.704-62.569 41.521-123.92 68.454-183.41 25.47-56.363 54.62-111.04 86.732-163.89 16.019-26.577 33.093-52.511 48.561-79.419 9.2158-15.982 18.289-32.047 27.384-48.098 9.3892-16.63 18.684-33.278 26.547-50.732 11.34-13.455 9.8847-16.869 26.288-23.47 20.776-4.4466 25.007-12.878 33.915-19.155 27.745-3.4809 18.314-26.633 10.023-23.152z" fill="url(#n)" stroke="#1e7512" stroke-width="2.79"/>
  <g transform="translate(-1373.8 32.325)">
   <g transform="translate(-225.73 286.93)" stroke="#1e7512" stroke-width="2.79">
    <path d="m4261.5-1607.6c-103.26 50.64-171.05 147.68-239.22 236.41-117.15 163.9-204.71 352.09-233.37 552.67-24.116 148.92-20.922 301.59 5.4886 449.97 34.83 233.96 85.423 465.56 176.5 685.08 17.553 39.026 48.9 110.44 68.439 147.18 38.814 23.243 126.6 6.3705 106.79-33.9-13.303-40.17-75.721-121.14-102.98-177.63-87.338-204.24-153.31-417.81-195.54-635.89-27.12-155.33-39.247-315.64-13.269-471.95 27.96-143.29 89.336-278.4 170.52-399.2 63.693-102.5 139.14-197.23 220.92-285.78 15.298-19.725 36.16-40.632 39.466-65.386-0.9442-1.032-2.3324-1.7108-3.75-1.5626z" fill="#d4ff2a"/>
    <path d="m4263.2-1608.5c-103.26 50.64-171.05 147.68-239.22 236.41-117.15 163.9-204.71 352.09-233.37 552.67-24.116 148.92-20.922 301.59 5.4886 449.97 34.83 233.96 85.423 465.56 176.5 685.08 17.553 39.026 48.9 110.44 68.439 147.18 38.814 23.243 126.6 6.3705 106.79-33.9-13.303-40.17-75.721-121.14-102.98-177.63-87.338-204.24-153.31-417.81-195.54-635.89-27.12-155.33-39.247-315.64-13.269-471.95 27.96-143.29 89.336-278.4 170.52-399.2 63.693-102.5 139.14-197.23 220.92-285.78 15.298-19.725 36.16-40.632 39.466-65.386-0.9442-1.032-2.3324-1.7108-3.75-1.5626z" fill="url(#m)"/>
   </g>
   <path d="m4037.6-1321.3c-103.26 50.64-171.05 147.68-239.22 236.41-117.15 163.9-204.71 352.09-233.37 552.67-24.116 148.92-20.922 301.59 5.4886 449.97 34.83 233.96 85.423 465.56 176.5 685.08 17.553 39.026 48.9 110.44 68.439 147.18 38.814 23.243 126.6 6.3704 106.79-33.9-13.303-40.17-75.721-121.14-102.98-177.63-87.338-204.24-153.31-417.81-195.54-635.89-27.12-155.33-39.247-315.64-13.269-471.95 27.96-143.29 89.336-278.4 170.52-399.2 63.693-102.5 139.14-197.23 220.92-285.78 15.298-19.725 36.16-40.632 39.466-65.386-0.9442-1.032-2.3324-1.7108-3.75-1.5626z" fill="url(#l)"/>
   <path d="m4035.2-1322c-103.26 50.64-171.05 147.68-239.22 236.41-117.15 163.9-204.71 352.09-233.37 552.67-24.116 148.92-20.922 301.59 5.4886 449.97 34.83 233.96 85.423 465.56 176.5 685.08 17.553 39.026 48.9 110.44 68.439 147.18 38.814 23.243 126.6 6.3705 106.79-33.9-13.303-40.17-75.721-121.14-102.98-177.63-87.338-204.24-153.31-417.81-195.54-635.89-27.12-155.33-39.247-315.64-13.269-471.95 27.96-143.29 89.336-278.4 170.52-399.2 63.693-102.5 139.14-197.23 220.92-285.78 15.298-19.725 36.16-40.632 39.466-65.386-0.9442-1.032-2.3324-1.7108-3.75-1.5626z" fill="url(#i)" stroke="#1e7512" stroke-width="2.79"/>
   <path d="m4048-1318.2c-0.9442-1.032-2.3324-1.7108-3.75-1.5626-103.26 50.64-171.05 147.68-239.22 236.41-117.15 163.9-204.71 352.09-233.37 552.67" fill="none" filter="url(#ai)" stroke="#eef4d7" stroke-width="5"/>
   <path d="m3565.8-345.69c48.487 468.71 187.89 899.04 305.07 1097" fill="none" filter="url(#ah)" stroke="#4a0" stroke-width="10"/>
   <path d="m3571.2-531.45c-24.116 148.92-20.922 301.59 5.4886 449.97 34.83 233.96 85.423 465.56 176.5 685.08 17.553 39.026 48.9 110.44 68.439 147.18" fill="none" filter="url(#ag)" stroke="#f6ffd5" stroke-width="5"/>
  </g>
  <path d="m2662.5-1289.5c-103.26 50.64-171.05 147.68-239.22 236.41-117.15 163.9-204.71 352.09-233.37 552.67-24.116 148.92-20.922 301.59 5.4886 449.97 34.83 233.96 85.423 465.56 176.5 685.08 17.553 39.026 48.9 110.44 68.439 147.18 38.814 23.243 126.6 6.3705 106.79-33.9-13.303-40.17-75.721-121.14-102.98-177.63-87.338-204.24-153.31-417.81-195.54-635.89-27.12-155.33-39.247-315.64-13.269-471.95 27.96-143.29 89.336-278.4 170.52-399.2 63.693-102.5 139.14-197.23 220.92-285.78 15.298-19.725 36.16-40.632 39.466-65.386-0.9442-1.032-2.3324-1.7108-3.75-1.5626z" fill="url(#k)" opacity=".41228" stroke="#1e7512" stroke-width="2.79"/>
 </g>
</svg>
